<svg id="Layer_3" data-name="Layer 3" xmlns="http://www.w3.org/2000/svg" xmlns:xlink="http://www.w3.org/1999/xlink" viewBox="0 0 262.48 404.76"><defs><style>.cls-1,.cls-10,.cls-100,.cls-101,.cls-102,.cls-103,.cls-104,.cls-105,.cls-106,.cls-107,.cls-108,.cls-109,.cls-11,.cls-110,.cls-111,.cls-112,.cls-113,.cls-114,.cls-115,.cls-116,.cls-117,.cls-118,.cls-119,.cls-12,.cls-120,.cls-121,.cls-122,.cls-123,.cls-124,.cls-125,.cls-126,.cls-127,.cls-128,.cls-129,.cls-13,.cls-130,.cls-131,.cls-132,.cls-133,.cls-134,.cls-135,.cls-136,.cls-137,.cls-138,.cls-139,.cls-14,.cls-140,.cls-141,.cls-142,.cls-143,.cls-144,.cls-145,.cls-146,.cls-147,.cls-148,.cls-149,.cls-15,.cls-150,.cls-151,.cls-152,.cls-153,.cls-154,.cls-155,.cls-156,.cls-157,.cls-158,.cls-159,.cls-16,.cls-160,.cls-161,.cls-162,.cls-163,.cls-164,.cls-165,.cls-166,.cls-167,.cls-168,.cls-169,.cls-17,.cls-170,.cls-171,.cls-172,.cls-173,.cls-174,.cls-175,.cls-176,.cls-177,.cls-178,.cls-179,.cls-18,.cls-180,.cls-181,.cls-182,.cls-183,.cls-184,.cls-185,.cls-186,.cls-187,.cls-188,.cls-189,.cls-19,.cls-190,.cls-191,.cls-192,.cls-193,.cls-194,.cls-195,.cls-196,.cls-197,.cls-198,.cls-199,.cls-2,.cls-20,.cls-200,.cls-201,.cls-202,.cls-203,.cls-204,.cls-21,.cls-22,.cls-23,.cls-24,.cls-25,.cls-26,.cls-27,.cls-28,.cls-29,.cls-3,.cls-30,.cls-31,.cls-32,.cls-33,.cls-34,.cls-35,.cls-36,.cls-37,.cls-38,.cls-39,.cls-4,.cls-40,.cls-41,.cls-42,.cls-43,.cls-44,.cls-45,.cls-46,.cls-47,.cls-48,.cls-49,.cls-5,.cls-50,.cls-51,.cls-52,.cls-53,.cls-54,.cls-55,.cls-56,.cls-57,.cls-58,.cls-59,.cls-6,.cls-60,.cls-61,.cls-62,.cls-63,.cls-64,.cls-65,.cls-66,.cls-67,.cls-68,.cls-69,.cls-7,.cls-70,.cls-71,.cls-72,.cls-73,.cls-74,.cls-75,.cls-76,.cls-77,.cls-78,.cls-79,.cls-8,.cls-80,.cls-81,.cls-82,.cls-83,.cls-84,.cls-85,.cls-86,.cls-87,.cls-88,.cls-89,.cls-9,.cls-90,.cls-91,.cls-92,.cls-93,.cls-94,.cls-95,.cls-96,.cls-97,.cls-98,.cls-99{fill:none;stroke-miterlimit:10;}.cls-1{stroke:url(#Orange_Yellow);}.cls-2{stroke:url(#Orange_Yellow-2);}.cls-3{stroke:url(#Orange_Yellow-3);}.cls-4{stroke:url(#Orange_Yellow-4);}.cls-5{stroke:url(#Orange_Yellow-5);}.cls-6{stroke:url(#Orange_Yellow-6);}.cls-7{stroke:url(#Orange_Yellow-7);}.cls-8{stroke:url(#Orange_Yellow-8);}.cls-9{stroke:url(#Orange_Yellow-9);}.cls-10{stroke:url(#Orange_Yellow-10);}.cls-11{stroke:url(#Orange_Yellow-11);}.cls-12{stroke:url(#Orange_Yellow-12);}.cls-13{stroke:url(#Orange_Yellow-13);}.cls-14{stroke:url(#Orange_Yellow-14);}.cls-15{stroke:url(#Orange_Yellow-15);}.cls-16{stroke:url(#Orange_Yellow-16);}.cls-17{stroke:url(#Orange_Yellow-17);}.cls-18{stroke:url(#Orange_Yellow-18);}.cls-19{stroke:url(#Orange_Yellow-19);}.cls-20{stroke:url(#Orange_Yellow-20);}.cls-21{stroke:url(#Orange_Yellow-21);}.cls-22{stroke:url(#Orange_Yellow-22);}.cls-23{stroke:url(#Orange_Yellow-23);}.cls-24{stroke:url(#Orange_Yellow-24);}.cls-25{stroke:url(#Orange_Yellow-25);}.cls-26{stroke:url(#Orange_Yellow-26);}.cls-27{stroke:url(#Orange_Yellow-27);}.cls-28{stroke:url(#Orange_Yellow-28);}.cls-29{stroke:url(#Orange_Yellow-29);}.cls-30{stroke:url(#Orange_Yellow-30);}.cls-31{stroke:url(#Orange_Yellow-31);}.cls-32{stroke:url(#Orange_Yellow-32);}.cls-33{stroke:url(#Orange_Yellow-33);}.cls-34{stroke:url(#Orange_Yellow-34);}.cls-35{stroke:url(#Orange_Yellow-35);}.cls-36{stroke:url(#Orange_Yellow-36);}.cls-37{stroke:url(#Orange_Yellow-37);}.cls-38{stroke:url(#Orange_Yellow-38);}.cls-39{stroke:url(#Orange_Yellow-39);}.cls-40{stroke:url(#Orange_Yellow-40);}.cls-41{stroke:url(#Orange_Yellow-41);}.cls-42{stroke:url(#Orange_Yellow-42);}.cls-43{stroke:url(#Orange_Yellow-43);}.cls-44{stroke:url(#Orange_Yellow-44);}.cls-45{stroke:url(#Orange_Yellow-45);}.cls-46{stroke:url(#Orange_Yellow-46);}.cls-47{stroke:url(#Orange_Yellow-47);}.cls-48{stroke:url(#Orange_Yellow-48);}.cls-49{stroke:url(#Orange_Yellow-49);}.cls-50{stroke:url(#Orange_Yellow-50);}.cls-51{stroke:url(#Orange_Yellow-51);}.cls-52{stroke:url(#Orange_Yellow-52);}.cls-53{stroke:url(#Orange_Yellow-53);}.cls-54{stroke:url(#Orange_Yellow-54);}.cls-55{stroke:url(#Orange_Yellow-55);}.cls-56{stroke:url(#Orange_Yellow-56);}.cls-57{stroke:url(#Orange_Yellow-57);}.cls-58{stroke:url(#Orange_Yellow-58);}.cls-59{stroke:url(#Orange_Yellow-59);}.cls-60{stroke:url(#Orange_Yellow-60);}.cls-61{stroke:url(#Orange_Yellow-61);}.cls-62{stroke:url(#Orange_Yellow-62);}.cls-63{stroke:url(#Orange_Yellow-63);}.cls-64{stroke:url(#Orange_Yellow-64);}.cls-65{stroke:url(#Orange_Yellow-65);}.cls-66{stroke:url(#Orange_Yellow-66);}.cls-67{stroke:url(#Orange_Yellow-67);}.cls-68{stroke:url(#Orange_Yellow-68);}.cls-69{stroke:url(#Orange_Yellow-69);}.cls-70{stroke:url(#Orange_Yellow-70);}.cls-71{stroke:url(#Orange_Yellow-71);}.cls-72{stroke:url(#Orange_Yellow-72);}.cls-73{stroke:url(#Orange_Yellow-73);}.cls-74{stroke:url(#Orange_Yellow-74);}.cls-75{stroke:url(#Orange_Yellow-75);}.cls-76{stroke:url(#Orange_Yellow-76);}.cls-77{stroke:url(#Orange_Yellow-77);}.cls-78{stroke:url(#Orange_Yellow-78);}.cls-79{stroke:url(#Orange_Yellow-79);}.cls-80{stroke:url(#Orange_Yellow-80);}.cls-81{stroke:url(#Orange_Yellow-81);}.cls-82{stroke:url(#Orange_Yellow-82);}.cls-83{stroke:url(#Orange_Yellow-83);}.cls-84{stroke:url(#Orange_Yellow-84);}.cls-85{stroke:url(#Orange_Yellow-85);}.cls-86{stroke:url(#Orange_Yellow-86);}.cls-87{stroke:url(#Orange_Yellow-87);}.cls-88{stroke:url(#Orange_Yellow-88);}.cls-89{stroke:url(#Orange_Yellow-89);}.cls-90{stroke:url(#Orange_Yellow-90);}.cls-91{stroke:url(#Orange_Yellow-91);}.cls-92{stroke:url(#Orange_Yellow-92);}.cls-93{stroke:url(#Orange_Yellow-93);}.cls-94{stroke:url(#Orange_Yellow-94);}.cls-95{stroke:url(#Orange_Yellow-95);}.cls-96{stroke:url(#Orange_Yellow-96);}.cls-97{stroke:url(#Orange_Yellow-97);}.cls-98{stroke:url(#Orange_Yellow-98);}.cls-99{stroke:url(#Orange_Yellow-99);}.cls-100{stroke:url(#Orange_Yellow-100);}.cls-101{stroke:url(#Orange_Yellow-101);}.cls-102{stroke:url(#Orange_Yellow-102);}.cls-103{stroke:url(#Orange_Yellow-103);}.cls-104{stroke:url(#Orange_Yellow-104);}.cls-105{stroke:url(#Orange_Yellow-105);}.cls-106{stroke:url(#Orange_Yellow-106);}.cls-107{stroke:url(#Orange_Yellow-107);}.cls-108{stroke:url(#Orange_Yellow-108);}.cls-109{stroke:url(#Orange_Yellow-109);}.cls-110{stroke:url(#Orange_Yellow-110);}.cls-111{stroke:url(#Orange_Yellow-111);}.cls-112{stroke:url(#Orange_Yellow-112);}.cls-113{stroke:url(#Orange_Yellow-113);}.cls-114{stroke:url(#Orange_Yellow-114);}.cls-115{stroke:url(#Orange_Yellow-115);}.cls-116{stroke:url(#Orange_Yellow-116);}.cls-117{stroke:url(#Orange_Yellow-117);}.cls-118{stroke:url(#Orange_Yellow-118);}.cls-119{stroke:url(#Orange_Yellow-119);}.cls-120{stroke:url(#Orange_Yellow-120);}.cls-121{stroke:url(#Orange_Yellow-121);}.cls-122{stroke:url(#Orange_Yellow-122);}.cls-123{stroke:url(#Orange_Yellow-123);}.cls-124{stroke:url(#Orange_Yellow-124);}.cls-125{stroke:url(#Orange_Yellow-125);}.cls-126{stroke:url(#Orange_Yellow-126);}.cls-127{stroke:url(#Orange_Yellow-127);}.cls-128{stroke:url(#Orange_Yellow-128);}.cls-129{stroke:url(#Orange_Yellow-129);}.cls-130{stroke:url(#Orange_Yellow-130);}.cls-131{stroke:url(#Orange_Yellow-131);}.cls-132{stroke:url(#Orange_Yellow-132);}.cls-133{stroke:url(#Orange_Yellow-133);}.cls-134{stroke:url(#Orange_Yellow-134);}.cls-135{stroke:url(#Orange_Yellow-135);}.cls-136{stroke:url(#Orange_Yellow-136);}.cls-137{stroke:url(#Orange_Yellow-137);}.cls-138{stroke:url(#Orange_Yellow-138);}.cls-139{stroke:url(#Orange_Yellow-139);}.cls-140{stroke:url(#Orange_Yellow-140);}.cls-141{stroke:url(#Orange_Yellow-141);}.cls-142{stroke:url(#Orange_Yellow-142);}.cls-143{stroke:url(#Orange_Yellow-143);}.cls-144{stroke:url(#Orange_Yellow-144);}.cls-145{stroke:url(#Orange_Yellow-145);}.cls-146{stroke:url(#Orange_Yellow-146);}.cls-147{stroke:url(#Orange_Yellow-147);}.cls-148{stroke:url(#Orange_Yellow-148);}.cls-149{stroke:url(#Orange_Yellow-149);}.cls-150{stroke:url(#Orange_Yellow-150);}.cls-151{stroke:url(#Orange_Yellow-151);}.cls-152{stroke:url(#Orange_Yellow-152);}.cls-153{stroke:url(#Orange_Yellow-153);}.cls-154{stroke:url(#Orange_Yellow-154);}.cls-155{stroke:url(#Orange_Yellow-155);}.cls-156{stroke:url(#Orange_Yellow-156);}.cls-157{stroke:url(#Orange_Yellow-157);}.cls-158{stroke:url(#Orange_Yellow-158);}.cls-159{stroke:url(#Orange_Yellow-159);}.cls-160{stroke:url(#Orange_Yellow-160);}.cls-161{stroke:url(#Orange_Yellow-161);}.cls-162{stroke:url(#Orange_Yellow-162);}.cls-163{stroke:url(#Orange_Yellow-163);}.cls-164{stroke:url(#Orange_Yellow-164);}.cls-165{stroke:url(#Orange_Yellow-165);}.cls-166{stroke:url(#Orange_Yellow-166);}.cls-167{stroke:url(#Orange_Yellow-167);}.cls-168{stroke:url(#Orange_Yellow-168);}.cls-169{stroke:url(#Orange_Yellow-169);}.cls-170{stroke:url(#Orange_Yellow-170);}.cls-171{stroke:url(#Orange_Yellow-171);}.cls-172{stroke:url(#Orange_Yellow-172);}.cls-173{stroke:url(#Orange_Yellow-173);}.cls-174{stroke:url(#Orange_Yellow-174);}.cls-175{stroke:url(#Orange_Yellow-175);}.cls-176{stroke:url(#Orange_Yellow-176);}.cls-177{stroke:url(#Orange_Yellow-177);}.cls-178{stroke:url(#Orange_Yellow-178);}.cls-179{stroke:url(#Orange_Yellow-179);}.cls-180{stroke:url(#Orange_Yellow-180);}.cls-181{stroke:url(#Orange_Yellow-181);}.cls-182{stroke:url(#Orange_Yellow-182);}.cls-183{stroke:url(#Orange_Yellow-183);}.cls-184{stroke:url(#Orange_Yellow-184);}.cls-185{stroke:url(#Orange_Yellow-185);}.cls-186{stroke:url(#Orange_Yellow-186);}.cls-187{stroke:url(#Orange_Yellow-187);}.cls-188{stroke:url(#Orange_Yellow-188);}.cls-189{stroke:url(#Orange_Yellow-189);}.cls-190{stroke:url(#Orange_Yellow-190);}.cls-191{stroke:url(#Orange_Yellow-191);}.cls-192{stroke:url(#Orange_Yellow-192);}.cls-193{stroke:url(#Orange_Yellow-193);}.cls-194{stroke:url(#Orange_Yellow-194);}.cls-195{stroke:url(#Orange_Yellow-195);}.cls-196{stroke:url(#Orange_Yellow-196);}.cls-197{stroke:url(#Orange_Yellow-197);}.cls-198{stroke:url(#Orange_Yellow-198);}.cls-199{stroke:url(#Orange_Yellow-199);}.cls-200{stroke:url(#Orange_Yellow-200);}.cls-201{stroke:url(#Orange_Yellow-201);}.cls-202{stroke:url(#Orange_Yellow-202);}.cls-203{stroke:url(#Orange_Yellow-203);}.cls-204{stroke:url(#Orange_Yellow-204);}</style><linearGradient id="Orange_Yellow" x1="127.52" y1="306.44" x2="324.13" y2="306.44" gradientUnits="userSpaceOnUse"><stop offset="0" stop-color="#fff33b"/><stop offset="0.04" stop-color="#fee72e"/><stop offset="0.12" stop-color="#fed51b"/><stop offset="0.2" stop-color="#fdca10"/><stop offset="0.28" stop-color="#fdc70c"/><stop offset="0.67" stop-color="#f3903f"/><stop offset="0.89" stop-color="#ed683c"/><stop offset="1" stop-color="#e93e3a"/></linearGradient><linearGradient id="Orange_Yellow-2" x1="154.17" y1="404.19" x2="245.89" y2="404.19" xlink:href="#Orange_Yellow"/><linearGradient id="Orange_Yellow-3" x1="238.1" y1="204.51" x2="282.89" y2="204.51" xlink:href="#Orange_Yellow"/><linearGradient id="Orange_Yellow-4" x1="296.67" y1="312.76" x2="334" y2="312.76" xlink:href="#Orange_Yellow"/><linearGradient id="Orange_Yellow-5" x1="159.75" y1="211.62" x2="216.38" y2="211.62" xlink:href="#Orange_Yellow"/><linearGradient id="Orange_Yellow-6" x1="105.39" y1="146.59" x2="154.01" y2="146.59" xlink:href="#Orange_Yellow"/><linearGradient id="Orange_Yellow-7" x1="103.11" y1="221.52" x2="134.87" y2="221.52" xlink:href="#Orange_Yellow"/><linearGradient id="Orange_Yellow-8" x1="259.37" y1="223.8" x2="295.28" y2="223.8" xlink:href="#Orange_Yellow"/><linearGradient id="Orange_Yellow-9" x1="165.2" y1="219.46" x2="198.89" y2="219.46" xlink:href="#Orange_Yellow"/><linearGradient id="Orange_Yellow-10" x1="163.49" y1="69.07" x2="202.92" y2="69.07" xlink:href="#Orange_Yellow"/><linearGradient id="Orange_Yellow-11" x1="206.99" y1="319.52" x2="263.89" y2="319.52" xlink:href="#Orange_Yellow"/><linearGradient id="Orange_Yellow-12" x1="252.13" y1="419.21" x2="319.44" y2="419.21" xlink:href="#Orange_Yellow"/><linearGradient id="Orange_Yellow-13" x1="191.57" y1="322.73" x2="264.59" y2="322.73" xlink:href="#Orange_Yellow"/><linearGradient id="Orange_Yellow-14" x1="135.3" y1="182.41" x2="161" y2="182.41" xlink:href="#Orange_Yellow"/><linearGradient id="Orange_Yellow-15" x1="329.6" y1="256.07" x2="364.57" y2="256.07" xlink:href="#Orange_Yellow"/><linearGradient id="Orange_Yellow-16" x1="219.77" y1="135.65" x2="269.67" y2="135.65" xlink:href="#Orange_Yellow"/><linearGradient id="Orange_Yellow-17" x1="250.59" y1="426" x2="313.01" y2="426" xlink:href="#Orange_Yellow"/><linearGradient id="Orange_Yellow-18" x1="187.71" y1="118.85" x2="256.23" y2="118.85" xlink:href="#Orange_Yellow"/><linearGradient id="Orange_Yellow-19" x1="102.09" y1="120.19" x2="155.64" y2="120.19" xlink:href="#Orange_Yellow"/><linearGradient id="Orange_Yellow-20" x1="199.91" y1="303.17" x2="234.55" y2="303.17" xlink:href="#Orange_Yellow"/><linearGradient id="Orange_Yellow-21" x1="341.52" y1="194.47" x2="360.95" y2="194.47" xlink:href="#Orange_Yellow"/><linearGradient id="Orange_Yellow-22" x1="225.09" y1="54.03" x2="279.36" y2="54.03" xlink:href="#Orange_Yellow"/><linearGradient id="Orange_Yellow-23" x1="154.68" y1="193.16" x2="198.88" y2="193.16" xlink:href="#Orange_Yellow"/><linearGradient id="Orange_Yellow-24" x1="232.7" y1="213.98" x2="250.98" y2="213.98" xlink:href="#Orange_Yellow"/><linearGradient id="Orange_Yellow-25" x1="251.19" y1="223.84" x2="266.82" y2="223.84" xlink:href="#Orange_Yellow"/><linearGradient id="Orange_Yellow-26" x1="124.84" y1="233.14" x2="135.31" y2="233.14" xlink:href="#Orange_Yellow"/><linearGradient id="Orange_Yellow-27" x1="195.13" y1="222.63" x2="207.03" y2="222.63" xlink:href="#Orange_Yellow"/><linearGradient id="Orange_Yellow-28" x1="200.79" y1="49.19" x2="235.45" y2="49.19" xlink:href="#Orange_Yellow"/><linearGradient id="Orange_Yellow-29" x1="163.29" y1="121.76" x2="188.95" y2="121.76" xlink:href="#Orange_Yellow"/><linearGradient id="Orange_Yellow-30" x1="340.12" y1="227.79" x2="353.63" y2="227.79" xlink:href="#Orange_Yellow"/><linearGradient id="Orange_Yellow-31" x1="104.06" y1="180.37" x2="124.54" y2="180.37" xlink:href="#Orange_Yellow"/><linearGradient id="Orange_Yellow-32" x1="181.97" y1="316.28" x2="193.54" y2="316.28" xlink:href="#Orange_Yellow"/><linearGradient id="Orange_Yellow-33" x1="203.14" y1="315.91" x2="228.41" y2="315.91" xlink:href="#Orange_Yellow"/><linearGradient id="Orange_Yellow-34" x1="154.89" y1="138.33" x2="164.05" y2="138.33" xlink:href="#Orange_Yellow"/><linearGradient id="Orange_Yellow-35" x1="158.19" y1="135.99" x2="172.01" y2="135.99" xlink:href="#Orange_Yellow"/><linearGradient id="Orange_Yellow-36" x1="235.78" y1="230.43" x2="250.97" y2="230.43" xlink:href="#Orange_Yellow"/><linearGradient id="Orange_Yellow-37" x1="265.86" y1="169.75" x2="273.33" y2="169.75" xlink:href="#Orange_Yellow"/><linearGradient id="Orange_Yellow-38" x1="192.08" y1="328.61" x2="205.87" y2="328.61" xlink:href="#Orange_Yellow"/><linearGradient id="Orange_Yellow-39" x1="158.8" y1="373.27" x2="164.4" y2="373.27" xlink:href="#Orange_Yellow"/><linearGradient id="Orange_Yellow-40" x1="151.52" y1="199.44" x2="160.84" y2="199.44" xlink:href="#Orange_Yellow"/><linearGradient id="Orange_Yellow-41" x1="260.63" y1="141.14" x2="265.46" y2="141.14" xlink:href="#Orange_Yellow"/><linearGradient id="Orange_Yellow-42" x1="153.38" y1="92.59" x2="164.8" y2="92.59" xlink:href="#Orange_Yellow"/><linearGradient id="Orange_Yellow-43" x1="186.02" y1="316.3" x2="192" y2="316.3" xlink:href="#Orange_Yellow"/><linearGradient id="Orange_Yellow-44" x1="122.56" y1="203.15" x2="129.56" y2="203.15" xlink:href="#Orange_Yellow"/><linearGradient id="Orange_Yellow-45" x1="243.18" y1="275.26" x2="250.67" y2="275.26" xlink:href="#Orange_Yellow"/><linearGradient id="Orange_Yellow-46" x1="156.18" y1="199.48" x2="167.14" y2="199.48" xlink:href="#Orange_Yellow"/><linearGradient id="Orange_Yellow-47" x1="310.88" y1="391.11" x2="320.09" y2="391.11" xlink:href="#Orange_Yellow"/><linearGradient id="Orange_Yellow-48" x1="196.31" y1="195.11" x2="205.78" y2="195.11" xlink:href="#Orange_Yellow"/><linearGradient id="Orange_Yellow-49" x1="203.22" y1="45.38" x2="218.82" y2="45.38" xlink:href="#Orange_Yellow"/><linearGradient id="Orange_Yellow-50" x1="191.78" y1="316.2" x2="199.12" y2="316.2" xlink:href="#Orange_Yellow"/><linearGradient id="Orange_Yellow-51" x1="300.02" y1="371.13" x2="303.51" y2="371.13" xlink:href="#Orange_Yellow"/><linearGradient id="Orange_Yellow-52" x1="290.37" y1="71.1" x2="294.71" y2="71.1" xlink:href="#Orange_Yellow"/><linearGradient id="Orange_Yellow-53" x1="169.85" y1="430.45" x2="172.42" y2="430.45" xlink:href="#Orange_Yellow"/><linearGradient id="Orange_Yellow-54" x1="306.35" y1="381.03" x2="309.63" y2="381.03" xlink:href="#Orange_Yellow"/><linearGradient id="Orange_Yellow-55" x1="163.53" y1="92.54" x2="166.24" y2="92.54" xlink:href="#Orange_Yellow"/><linearGradient id="Orange_Yellow-56" x1="296.92" y1="359.35" x2="299.07" y2="359.35" xlink:href="#Orange_Yellow"/><linearGradient id="Orange_Yellow-57" x1="347.7" y1="203.75" x2="350.01" y2="203.75" xlink:href="#Orange_Yellow"/><linearGradient id="Orange_Yellow-58" x1="219.93" y1="47.25" x2="222.46" y2="47.25" xlink:href="#Orange_Yellow"/><linearGradient id="Orange_Yellow-59" x1="304" y1="377.03" x2="306.04" y2="377.03" xlink:href="#Orange_Yellow"/><linearGradient id="Orange_Yellow-60" x1="297.67" y1="362.8" x2="299.59" y2="362.8" xlink:href="#Orange_Yellow"/><linearGradient id="Orange_Yellow-61" x1="305.14" y1="378.78" x2="307.16" y2="378.78" xlink:href="#Orange_Yellow"/><linearGradient id="Orange_Yellow-62" x1="346.11" y1="209.12" x2="347.84" y2="209.12" xlink:href="#Orange_Yellow"/><linearGradient id="Orange_Yellow-63" x1="344.28" y1="212.99" x2="346.23" y2="212.99" xlink:href="#Orange_Yellow"/><linearGradient id="Orange_Yellow-64" x1="351.28" y1="191.7" x2="353.15" y2="191.7" xlink:href="#Orange_Yellow"/><linearGradient id="Orange_Yellow-65" x1="217.63" y1="46.66" x2="220.18" y2="46.66" xlink:href="#Orange_Yellow"/><linearGradient id="Orange_Yellow-66" x1="301.93" y1="268.59" x2="303.48" y2="268.59" xlink:href="#Orange_Yellow"/><linearGradient id="Orange_Yellow-67" x1="262.5" y1="237.48" x2="264.3" y2="237.48" xlink:href="#Orange_Yellow"/><linearGradient id="Orange_Yellow-68" x1="266.2" y1="160.99" x2="267.44" y2="160.99" xlink:href="#Orange_Yellow"/><linearGradient id="Orange_Yellow-69" x1="236.82" y1="376.63" x2="304.6" y2="376.63" xlink:href="#Orange_Yellow"/><linearGradient id="Orange_Yellow-70" x1="327.04" y1="262.1" x2="349.04" y2="262.1" xlink:href="#Orange_Yellow"/><linearGradient id="Orange_Yellow-71" x1="297.8" y1="303.53" x2="299.59" y2="303.53" xlink:href="#Orange_Yellow"/><linearGradient id="Orange_Yellow-72" x1="261.33" y1="299.37" x2="282.38" y2="299.37" xlink:href="#Orange_Yellow"/><linearGradient id="Orange_Yellow-73" x1="218.52" y1="295.79" x2="248.82" y2="295.79" xlink:href="#Orange_Yellow"/><linearGradient id="Orange_Yellow-74" x1="249.92" y1="287.21" x2="258.44" y2="287.21" xlink:href="#Orange_Yellow"/><linearGradient id="Orange_Yellow-75" x1="314.79" y1="238.35" x2="318.73" y2="238.35" xlink:href="#Orange_Yellow"/><linearGradient id="Orange_Yellow-76" x1="291.64" y1="290.86" x2="294" y2="290.86" xlink:href="#Orange_Yellow"/><linearGradient id="Orange_Yellow-77" x1="289.19" y1="289.81" x2="291.54" y2="289.81" xlink:href="#Orange_Yellow"/><linearGradient id="Orange_Yellow-78" x1="286.66" y1="297.52" x2="288.62" y2="297.52" xlink:href="#Orange_Yellow"/><linearGradient id="Orange_Yellow-79" x1="271.93" y1="325.87" x2="273.17" y2="325.87" xlink:href="#Orange_Yellow"/><linearGradient id="Orange_Yellow-80" x1="291.52" y1="291.66" x2="292.97" y2="291.66" xlink:href="#Orange_Yellow"/><linearGradient id="Orange_Yellow-81" x1="256.01" y1="282.69" x2="257.27" y2="282.69" xlink:href="#Orange_Yellow"/><linearGradient id="Orange_Yellow-82" x1="109.38" y1="153.51" x2="360.44" y2="153.51" xlink:href="#Orange_Yellow"/><linearGradient id="Orange_Yellow-83" x1="275.94" y1="201.58" x2="295.65" y2="201.58" xlink:href="#Orange_Yellow"/><linearGradient id="Orange_Yellow-84" x1="263.32" y1="201.31" x2="272.49" y2="201.31" xlink:href="#Orange_Yellow"/><linearGradient id="Orange_Yellow-85" x1="243.1" y1="226.1" x2="244.19" y2="226.1" xlink:href="#Orange_Yellow"/><linearGradient id="Orange_Yellow-86" x1="167.79" y1="197.8" x2="171.9" y2="197.8" xlink:href="#Orange_Yellow"/><linearGradient id="Orange_Yellow-87" x1="190.48" y1="213.26" x2="192.65" y2="213.26" xlink:href="#Orange_Yellow"/><linearGradient id="Orange_Yellow-88" x1="105.86" y1="130.52" x2="110.95" y2="130.52" xlink:href="#Orange_Yellow"/><linearGradient id="Orange_Yellow-89" x1="128.18" y1="214.52" x2="132.69" y2="214.52" xlink:href="#Orange_Yellow"/><linearGradient id="Orange_Yellow-90" x1="210.75" y1="331.42" x2="246.52" y2="331.42" xlink:href="#Orange_Yellow"/><linearGradient id="Orange_Yellow-91" x1="253.1" y1="318.27" x2="268.56" y2="318.27" xlink:href="#Orange_Yellow"/><linearGradient id="Orange_Yellow-92" x1="279.47" y1="225.95" x2="298.88" y2="225.95" xlink:href="#Orange_Yellow"/><linearGradient id="Orange_Yellow-93" x1="284" y1="226.77" x2="288.96" y2="226.77" xlink:href="#Orange_Yellow"/><linearGradient id="Orange_Yellow-94" x1="191.6" y1="217.69" x2="194.27" y2="217.69" xlink:href="#Orange_Yellow"/><linearGradient id="Orange_Yellow-95" x1="178" y1="58.93" x2="285.42" y2="58.93" xlink:href="#Orange_Yellow"/><linearGradient id="Orange_Yellow-96" x1="161.65" y1="80.77" x2="179.16" y2="80.77" xlink:href="#Orange_Yellow"/><linearGradient id="Orange_Yellow-97" x1="179.48" y1="57.37" x2="192.3" y2="57.37" xlink:href="#Orange_Yellow"/><linearGradient id="Orange_Yellow-98" x1="173.36" y1="67.07" x2="181.3" y2="67.07" xlink:href="#Orange_Yellow"/><linearGradient id="Orange_Yellow-99" x1="167.85" y1="86.74" x2="174.59" y2="86.74" xlink:href="#Orange_Yellow"/><linearGradient id="Orange_Yellow-100" x1="193.42" y1="49.06" x2="196.04" y2="49.06" xlink:href="#Orange_Yellow"/><linearGradient id="Orange_Yellow-101" x1="171.96" y1="81.34" x2="173.48" y2="81.34" xlink:href="#Orange_Yellow"/><linearGradient id="Orange_Yellow-102" x1="211.38" y1="316.7" x2="217.91" y2="316.7" xlink:href="#Orange_Yellow"/><linearGradient id="Orange_Yellow-103" x1="203.98" y1="316.86" x2="209.57" y2="316.86" xlink:href="#Orange_Yellow"/><linearGradient id="Orange_Yellow-104" x1="201.76" y1="319.95" x2="207.18" y2="319.95" xlink:href="#Orange_Yellow"/><linearGradient id="Orange_Yellow-105" x1="138.32" y1="168.31" x2="156.15" y2="168.31" xlink:href="#Orange_Yellow"/><linearGradient id="Orange_Yellow-106" x1="156.86" y1="159.35" x2="158.32" y2="159.35" xlink:href="#Orange_Yellow"/><linearGradient id="Orange_Yellow-107" x1="156.93" y1="159.32" x2="158.33" y2="159.32" xlink:href="#Orange_Yellow"/><linearGradient id="Orange_Yellow-108" x1="349.28" y1="229.14" x2="351.74" y2="229.14" xlink:href="#Orange_Yellow"/><linearGradient id="Orange_Yellow-109" x1="194.37" y1="116.46" x2="261.73" y2="116.46" xlink:href="#Orange_Yellow"/><linearGradient id="Orange_Yellow-110" x1="265.5" y1="148.04" x2="276.59" y2="148.04" xlink:href="#Orange_Yellow"/><linearGradient id="Orange_Yellow-111" x1="269.23" y1="158.68" x2="270.68" y2="158.68" xlink:href="#Orange_Yellow"/><linearGradient id="Orange_Yellow-112" x1="160.85" y1="119.04" x2="208.7" y2="119.04" xlink:href="#Orange_Yellow"/><linearGradient id="Orange_Yellow-113" x1="197.36" y1="115.4" x2="202.02" y2="115.4" xlink:href="#Orange_Yellow"/><linearGradient id="Orange_Yellow-114" x1="200.03" y1="116.03" x2="201.93" y2="116.03" xlink:href="#Orange_Yellow"/><linearGradient id="Orange_Yellow-115" x1="201.72" y1="301.66" x2="254.61" y2="301.66" xlink:href="#Orange_Yellow"/><linearGradient id="Orange_Yellow-116" x1="210.77" y1="306.4" x2="231.82" y2="306.4" xlink:href="#Orange_Yellow"/><linearGradient id="Orange_Yellow-117" x1="204.56" y1="302.05" x2="217.64" y2="302.05" xlink:href="#Orange_Yellow"/><linearGradient id="Orange_Yellow-118" x1="201.91" y1="296.07" x2="205.51" y2="296.07" xlink:href="#Orange_Yellow"/><linearGradient id="Orange_Yellow-119" x1="213.73" y1="295.64" x2="218" y2="295.64" xlink:href="#Orange_Yellow"/><linearGradient id="Orange_Yellow-120" x1="225.01" y1="311.91" x2="229.63" y2="311.91" xlink:href="#Orange_Yellow"/><linearGradient id="Orange_Yellow-121" x1="246.03" y1="55.44" x2="255.06" y2="55.44" xlink:href="#Orange_Yellow"/><linearGradient id="Orange_Yellow-122" x1="191.1" y1="194.4" x2="197.52" y2="194.4" xlink:href="#Orange_Yellow"/><linearGradient id="Orange_Yellow-123" x1="156.15" y1="195.53" x2="161.24" y2="195.53" xlink:href="#Orange_Yellow"/><linearGradient id="Orange_Yellow-124" x1="186.43" y1="195.17" x2="188.8" y2="195.17" xlink:href="#Orange_Yellow"/><linearGradient id="Orange_Yellow-125" x1="256.39" y1="199.68" x2="257.58" y2="199.68" xlink:href="#Orange_Yellow"/><linearGradient id="Orange_Yellow-126" x1="285.35" y1="69.83" x2="291.11" y2="69.83" xlink:href="#Orange_Yellow"/><linearGradient id="Orange_Yellow-127" x1="269.78" y1="172.56" x2="273.89" y2="172.56" xlink:href="#Orange_Yellow"/><linearGradient id="Orange_Yellow-128" x1="336.9" y1="223.51" x2="340.5" y2="223.51" xlink:href="#Orange_Yellow"/><linearGradient id="Orange_Yellow-129" x1="198.54" y1="195.52" x2="200.31" y2="195.52" xlink:href="#Orange_Yellow"/><linearGradient id="Orange_Yellow-130" x1="255.51" y1="347.37" x2="257.35" y2="347.37" xlink:href="#Orange_Yellow"/><linearGradient id="Orange_Yellow-131" x1="240.94" y1="366.77" x2="242.47" y2="366.77" xlink:href="#Orange_Yellow"/><linearGradient id="Orange_Yellow-132" x1="295.72" y1="209.45" x2="311.56" y2="209.45" xlink:href="#Orange_Yellow"/><linearGradient id="Orange_Yellow-133" x1="275.95" y1="304.19" x2="277.27" y2="304.19" xlink:href="#Orange_Yellow"/><linearGradient id="Orange_Yellow-134" x1="252.17" y1="94.62" x2="260.39" y2="94.62" xlink:href="#Orange_Yellow"/><linearGradient id="Orange_Yellow-135" x1="141.27" y1="170.75" x2="148.75" y2="170.75" xlink:href="#Orange_Yellow"/><linearGradient id="Orange_Yellow-136" x1="206.27" y1="108.5" x2="219.91" y2="108.5" xlink:href="#Orange_Yellow"/><linearGradient id="Orange_Yellow-137" x1="285.49" y1="163.15" x2="291.04" y2="163.15" xlink:href="#Orange_Yellow"/><linearGradient id="Orange_Yellow-138" x1="273.3" y1="76.99" x2="282.31" y2="76.99" xlink:href="#Orange_Yellow"/><linearGradient id="Orange_Yellow-139" x1="191.99" y1="66.35" x2="205.52" y2="66.35" xlink:href="#Orange_Yellow"/><linearGradient id="Orange_Yellow-140" x1="281.18" y1="82.27" x2="287.52" y2="82.27" xlink:href="#Orange_Yellow"/><linearGradient id="Orange_Yellow-141" x1="230.15" y1="109.85" x2="237.81" y2="109.85" xlink:href="#Orange_Yellow"/><linearGradient id="Orange_Yellow-142" x1="251.11" y1="93.86" x2="256.98" y2="93.86" xlink:href="#Orange_Yellow"/><linearGradient id="Orange_Yellow-143" x1="276.53" y1="86.32" x2="282.62" y2="86.32" xlink:href="#Orange_Yellow"/><linearGradient id="Orange_Yellow-144" x1="222.84" y1="64.92" x2="241.59" y2="64.92" xlink:href="#Orange_Yellow"/><linearGradient id="Orange_Yellow-145" x1="263.22" y1="101.01" x2="265.56" y2="101.01" xlink:href="#Orange_Yellow"/><linearGradient id="Orange_Yellow-146" x1="238.88" y1="65.35" x2="249.45" y2="65.35" xlink:href="#Orange_Yellow"/><linearGradient id="Orange_Yellow-147" x1="266.55" y1="70.83" x2="271.17" y2="70.83" xlink:href="#Orange_Yellow"/><linearGradient id="Orange_Yellow-148" x1="266.13" y1="105.38" x2="269.42" y2="105.38" xlink:href="#Orange_Yellow"/><linearGradient id="Orange_Yellow-149" x1="266.21" y1="116.86" x2="269.23" y2="116.86" xlink:href="#Orange_Yellow"/><linearGradient id="Orange_Yellow-150" x1="256.1" y1="100.7" x2="259.61" y2="100.7" xlink:href="#Orange_Yellow"/><linearGradient id="Orange_Yellow-151" x1="271.21" y1="69.78" x2="276.03" y2="69.78" xlink:href="#Orange_Yellow"/><linearGradient id="Orange_Yellow-152" x1="139.82" y1="145.91" x2="150.18" y2="145.91" xlink:href="#Orange_Yellow"/><linearGradient id="Orange_Yellow-153" x1="192.08" y1="54.13" x2="196.64" y2="54.13" xlink:href="#Orange_Yellow"/><linearGradient id="Orange_Yellow-154" x1="270.76" y1="113.67" x2="272.81" y2="113.67" xlink:href="#Orange_Yellow"/><linearGradient id="Orange_Yellow-155" x1="294.71" y1="79.12" x2="300.49" y2="79.12" xlink:href="#Orange_Yellow"/><linearGradient id="Orange_Yellow-156" x1="270.38" y1="89.31" x2="272.93" y2="89.31" xlink:href="#Orange_Yellow"/><linearGradient id="Orange_Yellow-157" x1="265.25" y1="109.55" x2="267.36" y2="109.55" xlink:href="#Orange_Yellow"/><linearGradient id="Orange_Yellow-158" x1="286.6" y1="127.27" x2="289.48" y2="127.27" xlink:href="#Orange_Yellow"/><linearGradient id="Orange_Yellow-159" x1="268.1" y1="73.29" x2="272.57" y2="73.29" xlink:href="#Orange_Yellow"/><linearGradient id="Orange_Yellow-160" x1="277.36" y1="153.63" x2="279.18" y2="153.63" xlink:href="#Orange_Yellow"/><linearGradient id="Orange_Yellow-161" x1="265.74" y1="79.38" x2="267.29" y2="79.38" xlink:href="#Orange_Yellow"/><linearGradient id="Orange_Yellow-162" x1="179.87" y1="71.21" x2="182.17" y2="71.21" xlink:href="#Orange_Yellow"/><linearGradient id="Orange_Yellow-163" x1="272.74" y1="176.97" x2="275.05" y2="176.97" xlink:href="#Orange_Yellow"/><linearGradient id="Orange_Yellow-164" x1="250.67" y1="87.65" x2="253.48" y2="87.65" xlink:href="#Orange_Yellow"/><linearGradient id="Orange_Yellow-165" x1="276.72" y1="146.92" x2="278.25" y2="146.92" xlink:href="#Orange_Yellow"/><linearGradient id="Orange_Yellow-166" x1="281.9" y1="76.15" x2="283.96" y2="76.15" xlink:href="#Orange_Yellow"/><linearGradient id="Orange_Yellow-167" x1="279.86" y1="72.7" x2="281.93" y2="72.7" xlink:href="#Orange_Yellow"/><linearGradient id="Orange_Yellow-168" x1="296.94" y1="176.08" x2="299" y2="176.08" xlink:href="#Orange_Yellow"/><linearGradient id="Orange_Yellow-169" x1="258.77" y1="101.94" x2="261.51" y2="101.94" xlink:href="#Orange_Yellow"/><linearGradient id="Orange_Yellow-170" x1="194.85" y1="69.75" x2="196.68" y2="69.75" xlink:href="#Orange_Yellow"/><linearGradient id="Orange_Yellow-171" x1="275.98" y1="83.32" x2="277.82" y2="83.32" xlink:href="#Orange_Yellow"/><linearGradient id="Orange_Yellow-172" x1="276.9" y1="156.97" x2="278.43" y2="156.97" xlink:href="#Orange_Yellow"/><linearGradient id="Orange_Yellow-173" x1="276.17" y1="150.52" x2="277.77" y2="150.52" xlink:href="#Orange_Yellow"/><linearGradient id="Orange_Yellow-174" x1="267.51" y1="111.58" x2="269.01" y2="111.58" xlink:href="#Orange_Yellow"/><linearGradient id="Orange_Yellow-175" x1="276.57" y1="149.64" x2="278.1" y2="149.64" xlink:href="#Orange_Yellow"/><linearGradient id="Orange_Yellow-176" x1="218.96" y1="106.06" x2="220.36" y2="106.06" xlink:href="#Orange_Yellow"/><linearGradient id="Orange_Yellow-177" x1="302.29" y1="200.3" x2="303.52" y2="200.3" xlink:href="#Orange_Yellow"/><linearGradient id="Orange_Yellow-178" x1="263.34" y1="121.56" x2="264.76" y2="121.56" xlink:href="#Orange_Yellow"/><linearGradient id="Orange_Yellow-179" x1="286.7" y1="164.54" x2="287.9" y2="164.54" xlink:href="#Orange_Yellow"/><linearGradient id="Orange_Yellow-180" x1="268.74" y1="114.29" x2="270.05" y2="114.29" xlink:href="#Orange_Yellow"/><linearGradient id="Orange_Yellow-181" x1="174.85" y1="111.97" x2="176.37" y2="111.97" xlink:href="#Orange_Yellow"/><linearGradient id="Orange_Yellow-182" x1="267.71" y1="118.86" x2="269.2" y2="118.86" xlink:href="#Orange_Yellow"/><linearGradient id="Orange_Yellow-183" x1="224.43" y1="107.61" x2="226.95" y2="107.61" xlink:href="#Orange_Yellow"/><linearGradient id="Orange_Yellow-184" x1="269.26" y1="133.29" x2="270.87" y2="133.29" xlink:href="#Orange_Yellow"/><linearGradient id="Orange_Yellow-185" x1="260.17" y1="102.1" x2="261.7" y2="102.1" xlink:href="#Orange_Yellow"/><linearGradient id="Orange_Yellow-186" x1="281.68" y1="75.59" x2="283.24" y2="75.59" xlink:href="#Orange_Yellow"/><linearGradient id="Orange_Yellow-187" x1="298" y1="178.97" x2="299.07" y2="178.97" xlink:href="#Orange_Yellow"/><linearGradient id="Orange_Yellow-188" x1="242.46" y1="328.51" x2="247.21" y2="328.51" xlink:href="#Orange_Yellow"/><linearGradient id="Orange_Yellow-189" x1="225.69" y1="336.09" x2="228.25" y2="336.09" xlink:href="#Orange_Yellow"/><linearGradient id="Orange_Yellow-190" x1="241.8" y1="327.37" x2="243.53" y2="327.37" xlink:href="#Orange_Yellow"/><linearGradient id="Orange_Yellow-191" x1="226.07" y1="336.16" x2="227.61" y2="336.16" xlink:href="#Orange_Yellow"/><linearGradient id="Orange_Yellow-192" x1="274.15" y1="63.03" x2="275.37" y2="63.03" xlink:href="#Orange_Yellow"/><linearGradient id="Orange_Yellow-193" x1="169.81" y1="87" x2="172.25" y2="87" xlink:href="#Orange_Yellow"/><linearGradient id="Orange_Yellow-194" x1="153.45" y1="155.01" x2="154.87" y2="155.01" xlink:href="#Orange_Yellow"/><linearGradient id="Orange_Yellow-195" x1="151.2" y1="167.5" x2="152.45" y2="167.5" xlink:href="#Orange_Yellow"/><linearGradient id="Orange_Yellow-196" x1="148.4" y1="166.11" x2="150.31" y2="166.11" xlink:href="#Orange_Yellow"/><linearGradient id="Orange_Yellow-197" x1="152.24" y1="165.61" x2="153.84" y2="165.61" xlink:href="#Orange_Yellow"/><linearGradient id="Orange_Yellow-198" x1="216.13" y1="111.09" x2="218.36" y2="111.09" xlink:href="#Orange_Yellow"/><linearGradient id="Orange_Yellow-199" x1="227.4" y1="109.11" x2="230.4" y2="109.11" xlink:href="#Orange_Yellow"/><linearGradient id="Orange_Yellow-200" x1="266.43" y1="141.71" x2="267.75" y2="141.71" xlink:href="#Orange_Yellow"/><linearGradient id="Orange_Yellow-201" x1="177.11" y1="113.32" x2="178.83" y2="113.32" xlink:href="#Orange_Yellow"/><linearGradient id="Orange_Yellow-202" x1="175.84" y1="114.24" x2="177.35" y2="114.24" xlink:href="#Orange_Yellow"/><linearGradient id="Orange_Yellow-203" x1="174.78" y1="117.39" x2="176.65" y2="117.39" xlink:href="#Orange_Yellow"/><linearGradient id="Orange_Yellow-204" x1="210.47" y1="295.63" x2="213.17" y2="295.63" xlink:href="#Orange_Yellow"/></defs><path class="cls-1" d="M243.1,377.79c-59.75,11.76-78.65-55.55-79.13-19.64,2.16-23.36-23.29-37.12-22.52-62,1.46-10.94-8-11.35-12.78-19,18.83,6,15.1,31,27,44.8,32.29,2.91,34.42,52.19,69.81,43,5,3.08,10.36-3.79,13.8-6.63,1.34,4.93,10.54-3.16-3.12-8.12-5.14-3-15,0-19-5.35,3.8,4.17,45.05-.51,34.2-6.45,4.73-7,10.83-4.59,11.24-13.78,1.7,1.85,2.32-1,3.72-.82-.67,4.29,7.43,7.24,6.23,2.05-1.6-25.75-17.81-3.56-35.25-11.62,4.28-6.69,28.28-1.81,18.49-33.14-5.55,12.59-3.83,9.73-17.63,9.64-14.65,5.48-1.16-5.52,9.1-3.22,13,3.17.35-23.48-3.61-10.78-6.72,2.77,3.41-15,11.08,1.21C283.58,324.65,358,215.57,280.15,245c-2.91.16-22.76-6.1-13.66-6.47,22,7.81,71.78-25.43,53,18.28-11.24,14.54-21,34.76-32.77,43.79,8.38,5.95-6.3,37.11-23.21,37.45-6.09-3.43-1.58,11.39-7.42,3.65-3.24,3.37,6.9,3.41-3.52,5.13,1.15.61,2.68-.28,3.25.92-2.56,18.86-34.42,22.1-47.55,24.62C219.62,378.68,230.91,371.83,243.1,377.79Zm49.14-86.08a1.25,1.25,0,0,0,1.24-1.61C292.46,289.92,291.79,292.31,292.24,291.71ZM277,295c-26.5-11.41-14,18.49,4.57,9.88C279.93,302.69,272.77,298.44,277,295Zm41.19-56.6c-.79-4.87-5.2,1.33-1.44,1.83C317.81,240.14,318.19,239.39,318.22,238.36Zm-27.29,51.47c-.32-.28-.63-.53-1.07-.28C290.07,290,290.58,290.59,290.93,289.83Zm-3.7,7.61c.16.43.34.46.71.24C287.74,297.33,287.59,297,287.23,297.44Z" transform="translate(-102.09 -43.62)"/><path class="cls-2" d="M243.69,447.59c-84.76,3.55-28.53-26.37-53.33-40.95-11.23-6.16-14.12,7.35-15.48,16.24-14.61,17.22-24.28-21.94-18.53-31.81,9.44,13.07,11.56-27.82,15.21-30.47,6.38,4.06,7,14.44,13.7,19.15C247.72,423.54,174.05,417.35,243.69,447.59Z" transform="translate(-102.09 -43.62)"/><path class="cls-3" d="M250.56,227.29C225.73,236.75,245,204,259.48,200c-10.47-3.37,22.71,1,17.37-8-7.17-22.32.81-8.83,5.47,2-.56.76.13,2.84-1.56,2.23-3.8-1.24,1.59,7.22-2.49,5.33-4.49-3,.78,5.42-2.08,5.36-5.4-4.5-30.65,11.3-14.48,9.73C257.46,218.88,250,223,250.56,227.29Zm-6.88-.93c2.14,1.5,4-2.49,4.7-4.55C245.73,219.16,242.19,225.1,243.68,226.36Zm25.88-25.54-4.92.38C266.9,203,268.2,201.41,269.56,200.82Z" transform="translate(-102.09 -43.62)"/><path class="cls-4" d="M297.92,344.31c-5.17-5.18,18.27-19.07,15-30.95-7.57-14.86-2.8,1.91-8.68,4-.56-13.09,13.3-21.35,14.63-33.72,3.91-9,6.79,7.54,14.37,5.73-3.9,12.83-8.47,5.26-12.49,9.37C318.67,316.75,309,330.87,297.92,344.31Z" transform="translate(-102.09 -43.62)"/><path class="cls-5" d="M190.53,212.12c18.67-13.7-57.46-8.57-19.54-14.49-3.3.46-11.55,1-3.9-.94-7.24-6.15,24.7,6.77,31.7,5.14,3.12,2.28,5.63-2.16,9.7.34-2.5,6.31,11.31,8.19,6.28,14.33-2.42,2.74,3.65,13.1-3.43,11.57C218.34,217.33,196.6,215.13,190.53,212.12Z" transform="translate(-102.09 -43.62)"/><path class="cls-6" d="M153.78,93.77c-52.36,27.06-50.59,51-30.87,103.18C91.39,156.32,104.76,111.15,153.78,93.77Z" transform="translate(-102.09 -43.62)"/><path class="cls-7" d="M134.21,241.41c-4,9.82-16.22-5.09-9.59-11.13,3.31-5-8.44-10.53-11.65-4.13-12.68,14.75-10.19-9.26-5.77-16.28,9.64-14.51,20.43,10.1,15.7-11.81,2.46,6.35,12,16.09-1.5,10.52C149.08,233.08,109.92,231.84,134.21,241.41Zm-28-23.68c-3.57,14.35,8.91,4.24,13.44.45C140.6,241.69,119.07,190.53,106.22,217.73Z" transform="translate(-102.09 -43.62)"/><path class="cls-8" d="M270.81,231.7c-13.08.33-6.45-8.48-10.71-10.19,1.3-2.22,5.68-2.48,6.13-4.94,14.62-4.44,46.54,14.68,15.32,2.73,4.56.7,17.13,11,6.63,9.36C271.22,211.82,283,231.06,270.81,231.7Zm-4.05-6.9c.19-2.14-2.37-1.86-2.18.23C264.18,227.3,267.14,227.11,266.76,224.8Z" transform="translate(-102.09 -43.62)"/><path class="cls-9" d="M191.23,213.17c5.44,1.88,1.15,2.35,6.87,2.73-3.84,7.57-3,.23-5.4,4.9-1.66,11-18.33,6.59-15.64-4.17-4.4,3-10.89,9.29-9.4,1.05C158.21,216.05,185.74,208.64,191.23,213.17Zm1.12,4.53c.64.6.83.54,1.29,0C193.15,217,192.94,217.2,192.35,217.7Z" transform="translate(-102.09 -43.62)"/><path class="cls-10" d="M165.7,91.71c8.31-9.78-11.95-31.07,24.68-43.55,3.92-.12,17.06-6.58,10-.38C170.78,45.84,178.85,84.24,165.7,91.71Z" transform="translate(-102.09 -43.62)"/><path class="cls-11" d="M250.62,317.12c48.25,2.4-56.91,11.4-41.59-.67C223.32,318.07,234.83,316.53,250.62,317.12Z" transform="translate(-102.09 -43.62)"/><path class="cls-12" d="M252.25,443c27.95-7.08,43.56-30.53,65.36-46.16C303.62,418.65,279.59,439.51,252.25,443Z" transform="translate(-102.09 -43.62)"/><path class="cls-13" d="M207.85,320c7.79,8.3,80.33-6.23,48,4.56C234.47,330.33,159.93,316.73,207.85,320Z" transform="translate(-102.09 -43.62)"/><path class="cls-14" d="M158.73,146.6c9.63,4.82-23,47.35-22.76,72.29C133.94,190.66,151.46,168.84,158.73,146.6Zm-1.11,12.75.27-.25C157.6,159.29,157.17,159.82,157.62,159.35Z" transform="translate(-102.09 -43.62)"/><path class="cls-15" d="M333.27,289.4c-8.72-4.82,3.8-16.31-.45-3.93,9.24-3.78,49.41-65.13,16.61-55.6-7.23-1.67,2.29-5.83,4.31-7.25C381.23,226.28,346.66,273.47,333.27,289.4Z" transform="translate(-102.09 -43.62)"/><path class="cls-16" d="M265,149.46c-3-22.32-8.52-32.69-42.09-37.07C279.13,101.62,270.83,189.08,265,149.46Z" transform="translate(-102.09 -43.62)"/><path class="cls-17" d="M252.47,443.23c25.44-2.57,42.64-21.61,59.53-36.93C306.05,425.93,240.85,457.43,252.47,443.23Z" transform="translate(-102.09 -43.62)"/><path class="cls-18" d="M222.92,112.39c9.51,5.56,28.21-.58,32.38,12.23-18.24-12.69-43-7.34-61.45-6.6-8.59,1.76-6.6-6.61.81-2.84,5.11-3.44-.37,4,7.05.91C203.14,111.27,219.21,114.3,222.92,112.39Z" transform="translate(-102.09 -43.62)"/><path class="cls-19" d="M106.69,134.38c-12.34,42.89,3.13-40.82,47.09-40.61C136.27,103.87,113.33,113.44,106.69,134.38Z" transform="translate(-102.09 -43.62)"/><path class="cls-20" d="M231.55,315.44c-83.91-33.16,33.48-26-12.2-17.34-6.17-8.07-23-5.71-14.4,0C217,314.37,242,310.35,231.55,315.44Z" transform="translate(-102.09 -43.62)"/><path class="cls-21" d="M352.84,189.37c.31,3.79-13.57,39.29-10.33,23.64C344.29,196.58,374.09,145.4,352.84,189.37Z" transform="translate(-102.09 -43.62)"/><path class="cls-22" d="M225.2,49c16.89,3.3,35.2,4.55,51.38,9.88C255,59.8,244.67,53.37,225.2,49Z" transform="translate(-102.09 -43.62)"/><path class="cls-23" d="M156.46,195.75c8.56-12.28,29.6-3.1,40.37-2.25C182.37,199.74,172,186.22,156.46,195.75Z" transform="translate(-102.09 -43.62)"/><path class="cls-24" d="M237.27,225.85c-1.75,7.4-5.83-6-3.23-8.79-3.63-6,11.31-12.48,15.55-15.89C245.43,210,234.84,211,237.27,225.85Z" transform="translate(-102.09 -43.62)"/><path class="cls-25" d="M266.23,216.57c-.44,2.46-4.83,2.73-6.13,4.94,4.66,1.34-.31,2.11-1.22,4.91C248.13,241.68,248.55,215.14,266.23,216.57Z" transform="translate(-102.09 -43.62)"/><path class="cls-26" d="M134.21,241.41c-18.49-8.23-2.31-9-2.57-12.83C137.76,215.77,132.91,236.65,134.21,241.41Z" transform="translate(-102.09 -43.62)"/><path class="cls-27" d="M195.67,220.05c4.48-11,8.61,3.49,10.44,8.59C198.43,224.4,200.69,231.09,195.67,220.05Z" transform="translate(-102.09 -43.62)"/><path class="cls-28" d="M225.2,49c28,10.39-12.29-5.21-22.3-.25C194.64,44,220.77,45.27,225.2,49Z" transform="translate(-102.09 -43.62)"/><path class="cls-29" d="M188.21,114.79c-1.36,3.6-6.46,2.5-8.86,5.18-7.15-2.78-8.78,8.85-15.3,8.78C167.77,120.12,179,115.08,188.21,114.79Z" transform="translate(-102.09 -43.62)"/><path class="cls-30" d="M351.05,221.67c8.27,1.22-11.42,5.43-1.62,8.2C334.6,241.78,340.82,223.87,351.05,221.67Z" transform="translate(-102.09 -43.62)"/><path class="cls-31" d="M104.55,160.35c4.35,12.86,14.35,23.84,18.34,36.59C116.13,186.06,107,173.83,104.55,160.35Z" transform="translate(-102.09 -43.62)"/><path class="cls-32" d="M190.73,319.88c-18.5,10.95-.27-20.23.7-5.61C186.12,308.56,184.06,321.24,190.73,319.88Z" transform="translate(-102.09 -43.62)"/><path class="cls-33" d="M206.12,317.09c-11-4.5,18.06-3.31,21.49-1.45C221.71,322,213.6,312.14,206.12,317.09Z" transform="translate(-102.09 -43.62)"/><path class="cls-34" d="M158.73,146.6c-8,6.44.28-17.52,4.7-17.63C162.2,134.63,157,140.83,158.73,146.6Z" transform="translate(-102.09 -43.62)"/><path class="cls-35" d="M159,146.15c-1.56-7.86,4-18,11.2-20.44C157.75,138.25,166.23,135.41,159,146.15Z" transform="translate(-102.09 -43.62)"/><path class="cls-36" d="M236.3,228.66c2.24-5.33,5.3,5.55,8.58.09,1.64-1.65,3.12-2.15,5.16-1.22C244.64,232,238.42,238.46,236.3,228.66Z" transform="translate(-102.09 -43.62)"/><path class="cls-37" d="M273.13,179c-9.37-3.45-2.54-15.58-6.33-17.9C273.09,157.1,268.27,176.86,273.13,179Z" transform="translate(-102.09 -43.62)"/><path class="cls-38" d="M204.88,332.86c3.7,9.8-15-10.32-12-11.13C197,325.26,200.43,329.94,204.88,332.86Z" transform="translate(-102.09 -43.62)"/><path class="cls-39" d="M163.86,362.11c-.1,7.54.78,17.18-3.85,23.26C162.12,378,161.65,369,163.86,362.11Z" transform="translate(-102.09 -43.62)"/><path class="cls-40" d="M157,201c7.15,4.08,1.17.39-3.45,1.94C148.05,203.12,159.14,188.52,157,201Z" transform="translate(-102.09 -43.62)"/><path class="cls-41" d="M261.13,140.12c0-11.48,3.49,1.21,3.8,6.61C260.93,146.09,261.51,142.83,261.13,140.12Z" transform="translate(-102.09 -43.62)"/><path class="cls-42" d="M162.24,94c-2.62-1.38-5.41-.14-8.09-.55C156.07,89.85,169.32,90.67,162.24,94Z" transform="translate(-102.09 -43.62)"/><path class="cls-43" d="M190.73,319.88c-7.79,1.05-3-12.17.48-5.17C186.84,314.92,188.48,318.07,190.73,319.88Z" transform="translate(-102.09 -43.62)"/><path class="cls-44" d="M129.05,208.57c-1.8-4.07-6.45-7.06-6-11.74C125.89,200.83,129.14,203.17,129.05,208.57Z" transform="translate(-102.09 -43.62)"/><path class="cls-45" d="M243.69,276.67c-.39-5,7.81-4.15,6.29.49C247.84,277.64,245.91,275.29,243.69,276.67Z" transform="translate(-102.09 -43.62)"/><path class="cls-46" d="M157,201c-1-.94.39-1.91,0-2.86C170.4,197.74,169.29,198,157,201Z" transform="translate(-102.09 -43.62)"/><path class="cls-47" d="M318.43,395.36c1.4-6.29-4.43-6.14-6.56-10.06C316.32,386.41,322.08,390.2,318.43,395.36Z" transform="translate(-102.09 -43.62)"/><path class="cls-48" d="M205,196.93c-4.6.06-4.77-1.48-8.06-1.79C195.88,190.73,204.15,195.39,205,196.93Z" transform="translate(-102.09 -43.62)"/><path class="cls-49" d="M217.18,46.48l-12.27-1.19A12,12,0,0,1,217.18,46.48Z" transform="translate(-102.09 -43.62)"/><path class="cls-50" d="M197.48,316c-1.38.47-5,2.12-5.18-.14C194.05,315,195.77,315.47,197.48,316Z" transform="translate(-102.09 -43.62)"/><path class="cls-51" d="M302.78,373.63c-2-1-2.47-2.72-2.17-4.78A10.59,10.59,0,0,1,302.78,373.63Z" transform="translate(-102.09 -43.62)"/><path class="cls-52" d="M291,70.43c1.48-.22,3-.39,3.14,1.46C292.89,71.9,291.58,72,291,70.43Z" transform="translate(-102.09 -43.62)"/><path class="cls-53" d="M171.17,429.52c1,.25,1.06,2-.1,1.86C170.06,431.27,170.12,429.36,171.17,429.52Z" transform="translate(-102.09 -43.62)"/><path class="cls-54" d="M309,382.37c-1.46-.19-2.34-.88-2.17-2.49A3.4,3.4,0,0,1,309,382.37Z" transform="translate(-102.09 -43.62)"/><path class="cls-55" d="M164.23,93.44c-.44-1.59-.24-2.08,1.47-1.73C165.9,92.78,165.33,93.61,164.23,93.44Z" transform="translate(-102.09 -43.62)"/><path class="cls-56" d="M298.34,360.54c-1.18-.66-1.17-1.48-.3-2.4A2.09,2.09,0,0,1,298.34,360.54Z" transform="translate(-102.09 -43.62)"/><path class="cls-57" d="M348.23,205c.06-.94.08-1.9,1.18-2.31C349.3,203.59,349.64,204.73,348.23,205Z" transform="translate(-102.09 -43.62)"/><path class="cls-58" d="M221.81,47.64a1.12,1.12,0,0,1-1.23-.45C221.32,46.46,221.59,47,221.81,47.64Z" transform="translate(-102.09 -43.62)"/><path class="cls-59" d="M305.53,377.78c-.89-.06-1.18-.54-1-1.38A1.24,1.24,0,0,1,305.53,377.78Z" transform="translate(-102.09 -43.62)"/><path class="cls-60" d="M299,363.42c-.72-.23-1.22-.54-.36-1.24A.89.89,0,0,1,299,363.42Z" transform="translate(-102.09 -43.62)"/><path class="cls-61" d="M306.66,379.53c-.89-.07-1.18-.55-1-1.38A1.29,1.29,0,0,1,306.66,379.53Z" transform="translate(-102.09 -43.62)"/><path class="cls-62" d="M346.81,209.77a.87.87,0,0,1,.24-1.31C347.55,209,347.35,209.42,346.81,209.77Z" transform="translate(-102.09 -43.62)"/><path class="cls-63" d="M344.79,213.67a1.12,1.12,0,0,1,.91-1.34A1.05,1.05,0,0,1,344.79,213.67Z" transform="translate(-102.09 -43.62)"/><path class="cls-64" d="M351.85,192.32a1,1,0,0,1,.43-1.2C353,191.83,352.56,192.12,351.85,192.32Z" transform="translate(-102.09 -43.62)"/><path class="cls-65" d="M219.52,47a1,1,0,0,1-1.25-.34C218.93,45.87,219.25,46.34,219.52,47Z" transform="translate(-102.09 -43.62)"/><path class="cls-66" d="M302.63,268.56c-.25-.12-.27-.12,0,0Z" transform="translate(-102.09 -43.62)"/><path class="cls-67" d="M263.17,237.66c-.14.05-.2.09-.15-.1Z" transform="translate(-102.09 -43.62)"/><path class="cls-68" d="M266.79,161.06c-.12.24-.12.26,0,0Z" transform="translate(-102.09 -43.62)"/><path class="cls-69" d="M256.72,373.76c54.34-27.48,25.18-42.54,46.95,6.47,5.31,8.19-40.53,27.49-45.52,24.5-16.45-6.19-5.74-3.75-19.93-2.1,3.27-3.21,7.93-4.86,11.85-8C234.47,392.38,246.35,377.24,256.72,373.76Z" transform="translate(-102.09 -43.62)"/><path class="cls-70" d="M328.23,271c3.75.21,1.33-16.92,9.38-11.17,6.91,5.9,1.9-13.38,7.58-13.16C359.67,256.7,322.1,292,328.23,271Z" transform="translate(-102.09 -43.62)"/><path class="cls-71" d="M299,303.59h0C299.05,303.28,299.14,303.51,299,303.59Z" transform="translate(-102.09 -43.62)"/><path class="cls-72" d="M277,295c-4.26,3.48,2.89,7.73,4.57,9.88C263,313.45,250.55,283.54,277,295Zm-.42,9c-.18.08-.22.16-.08.32C276.69,304.15,276.93,304,276.61,304Z" transform="translate(-102.09 -43.62)"/><path class="cls-73" d="M219.35,298.11c12.1-9.51,46.45-8.27,17.93-1.86C232,300,225.23,302.38,219.35,298.11Z" transform="translate(-102.09 -43.62)"/><path class="cls-74" d="M256.79,292.26c-3.35-.5,2.36-6.46-.7-8.35-2,2.68.57,7-5.44,7.22C256.24,276.51,259.92,281.64,256.79,292.26Z" transform="translate(-102.09 -43.62)"/><path class="cls-75" d="M318.22,238.36c0,1-.41,1.78-1.44,1.83C313,239.69,317.43,233.49,318.22,238.36Z" transform="translate(-102.09 -43.62)"/><path class="cls-76" d="M292.2,291.67c.08-.78.3-1.44,1.28-1.57C293.63,291.16,293,291.73,292.2,291.67Z" transform="translate(-102.09 -43.62)"/><path class="cls-77" d="M290.93,289.83c-.35.76-.85.12-1.07-.28C290.3,289.3,290.61,289.55,290.93,289.83Z" transform="translate(-102.09 -43.62)"/><path class="cls-78" d="M287.23,297.44c.36-.47.51-.11.71.24C287.57,297.9,287.39,297.87,287.23,297.44Z" transform="translate(-102.09 -43.62)"/><path class="cls-79" d="M272.59,325.79c.11-.22.12-.25,0,0Z" transform="translate(-102.09 -43.62)"/><path class="cls-80" d="M292.24,291.71c-.28.24-.29.23,0,0Z" transform="translate(-102.09 -43.62)"/><path class="cls-81" d="M256.88,283l-.48-.6Z" transform="translate(-102.09 -43.62)"/><path class="cls-82" d="M329.14,214.82c-5.76-28.62-1.5-22.59-22.79-29-6.33-.52,8-8.84-8.68-10.86,14.74,21.87-5.71,10.91,7.68,28.37,7.73,3.91-3.23,5.6-8.47,5.69-9.94-5.89-33.52-39.21-24.92-55.2.77-2.88,2.83,1.58,3.35,2.48,1.54-5.62,1-13.81-3.48-17.32-1.88.58-1.41,6-4.46,2.48,5.8-5.81,1.17-5.78.7-9.38,1.73-3-1.35-4.46-2.61-6.79-.33,1.3,1.21,4.24-2.34,2.36,2.13-6.75-3.09-12.63-5.56-25.49,4.25,5.37-2.22-8.42,3.69.11-2.05-12-14.81-24.88-2.54-3-9.61-11.27-6.23-8.07-1.16,2.89-72.49,20.08-107.22-15.23-125.65,118C71.41,73.13,152,135.06,177.38,72.8,263,6,410.85,131.44,342.35,224.51,323.16,272.86,331.85,253,329.14,214.82Zm-52-64.77c-.41.28-.77,1-.21,1.33C277.15,150.49,277.89,148.55,277.16,150.05Zm5.31-74.59-.35-.22C282.63,77.4,284.58,76.35,282.47,75.46Zm-13.93,43.42.22.14C269.4,110.73,264,113.47,268.54,118.88Zm-1.75-10.39c-.72-8.14-2.16,6.82,0,0,3.36,5.45,1.78-4.32,1.4-6.33C267.45,104.28,268.78,106.76,266.79,108.49Zm3.48-37c.73,4.59,3.22,2.42,0,0C272.15,66.08,262.17,69.05,270.27,71.48Zm7,12.07c0-.52-.57-1.16-1-.48C281,91.89,286,90.8,277.28,83.55Zm4.48-3.91c9.93,14.15.15-6.8-8.85-6.14C275.64,75,278.61,81.29,281.76,79.64ZM288.19,168c5.07-9,.7-3.89-1.53-10.88C284.19,164.55,289.44,160.63,288.19,168Zm-95-99.87c4.06.32,5.74-.84,10-3.4C199.65,65.19,196.09,65.61,193.2,68.16Zm44.88-3.68a20.26,20.26,0,0,0-11.37.8C230.47,64.78,234.26,64.9,238.08,64.48Zm26.14,40.57a9.79,9.79,0,0,0,.08-7.71C263.93,99.91,263.25,102.46,264.22,105.05ZM247.57,66.22c-2.76-2.13-4.95-2.74-7.56-1.29C242.28,65.91,244.58,65.71,247.57,66.22Zm24,1.9c.86.85,4.4,5.22,3.92,2C275.24,67.53,272.65,69.2,271.57,68.12ZM140.84,146.3a8.85,8.85,0,0,0,6.29-.66C145.17,145.88,143.13,144.16,140.84,146.3Zm131.48-28c-.56-2.45-.22-5-.56-7.46C270.78,113.38,271.37,115.85,272.32,118.3ZM299.6,79.38c-1.31-.3-4-2.24-4.33-.43C296.52,79.62,298.46,80.82,299.6,79.38ZM271,86.8c-.25,1.81-.28,3.26,1.33,4.92C272.19,89.69,272.18,88.26,271,86.8Zm16.9,39.39c-1.79-.24-.14,1.62.46,2.07C289.21,127.64,289.29,126.09,287.91,126.19Zm-10.05,29.72c1.61-1.65.45-2.56,0-3.54ZM266.52,81.14a7.57,7.57,0,0,0,0-4.14A8.35,8.35,0,0,0,266.52,81.14ZM183.36,68.92c-.09-2.07-2.5.49-.75.57C182.92,69.41,183.16,69.08,183.36,68.92Zm-1.69,2.61c.09-2.37-2.44.43-.67.3A2.41,2.41,0,0,0,181.67,71.53ZM277.52,146a1.71,1.71,0,0,0-.06,1.83A1.75,1.75,0,0,0,277.52,146Zm3.79-73.27-.75-.46C280,73,280.91,73.75,281.31,72.76ZM196.1,69.61c-.41-.27-.56-.18-.68.28C195.83,70.16,196,70.06,196.1,69.61Zm81.42,87.68c.38-.16.54-.3.3-.7C277.39,156.72,277.3,156.88,277.52,157.29Zm-9.23-45.14a.63.63,0,0,0,0-1C268.07,111.58,267.79,111.84,268.29,112.15Zm34.63,88,0,.41C303.06,200.44,303.06,200.33,302.92,200.16Zm-15.57-35.49c.06-.14.11-.23-.09-.26C287.2,164.55,287.15,164.64,287.35,164.67Zm-18-50.58c0,.07-.08.15-.07.21C269.39,114.87,269.8,114,269.31,114.09Z" transform="translate(-102.09 -43.62)"/><path class="cls-83" d="M282.32,194.07c4.34-.88-1.18,4.67,3.19,3.49-2.82,3.05,4.62,2.8,9.58,10.23-1.72,4.63-6.18-4.08-17.87-1.1-.44-3.41-2.42-7,2.33-4.83C279.07,190.6,281,200.46,282.32,194.07Z" transform="translate(-102.09 -43.62)"/><path class="cls-84" d="M269.56,200.82c-1.36.59-2.66,2.15-4.92.38Z" transform="translate(-102.09 -43.62)"/><path class="cls-85" d="M243.68,226.36l-.1.24C243.6,226.52,243.73,226.43,243.68,226.36Z" transform="translate(-102.09 -43.62)"/><path class="cls-86" d="M169.12,198a2,2,0,0,1,1.87-.38A2,2,0,0,1,169.12,198Z" transform="translate(-102.09 -43.62)"/><path class="cls-87" d="M191.23,213.17c-.37-.11-.19,0,0,0C191,213.61,190.82,213.36,191.23,213.17Z" transform="translate(-102.09 -43.62)"/><path class="cls-88" d="M106.69,134.38c.85-2.8,1.41-5.73,3.51-8C111.34,127.88,108.26,133.52,106.69,134.38Z" transform="translate(-102.09 -43.62)"/><path class="cls-89" d="M132,219c-2.07-2.73-4.51-6.57-2.73-10C133.46,210.48,131.85,215.67,132,219Z" transform="translate(-102.09 -43.62)"/><path class="cls-90" d="M211.83,332.25c12,1,39.18.23,23.19-6.45C265.82,323.39,223.34,347.21,211.83,332.25ZM227,336.17c-.29-.42-.15-.21,0,0C227.05,336.61,227.11,335.37,227,336.17Zm16.15-8.07c-.26-1.25-4,.53-1.66,2.63,1.41-.63.54-2.66,1.68-2.64C243.76,330.11,245.69,327.39,243.1,328.1Z" transform="translate(-102.09 -43.62)"/><path class="cls-91" d="M263.85,321.69c6.27-8-7.38-1.09-10-3.65C268.61,309.1,271.72,321.81,263.85,321.69Z" transform="translate(-102.09 -43.62)"/><path class="cls-92" d="M296.35,225.14c7.56,3.3-8.48,13.46-7.61,3.56,9.69,1.22-3-8.84-7.19-9.4C287.6,217.1,292.83,226.77,296.35,225.14Z" transform="translate(-102.09 -43.62)"/><path class="cls-93" d="M288.18,228.66c-3.91-.11-3.91-.11-3.5-3.42C286,226.19,287.47,227.05,288.18,228.66Z" transform="translate(-102.09 -43.62)"/><path class="cls-94" d="M192.35,217.7c.59-.5.8-.66,1.29,0C193.18,218.24,193,218.3,192.35,217.7Z" transform="translate(-102.09 -43.62)"/><path class="cls-95" d="M283.69,69.06c-35-6.35-78.2-33.56-104.67-2.18,1.61-6.31,10.3-10.76,13.66-15.19-8.58,3.23-4.21-2.32,1.26-3.18C213.51,48.1,264.92,53,283.69,69.06Z" transform="translate(-102.09 -43.62)"/><path class="cls-96" d="M178.43,68.06c-1.41,7.85-.76,30.66-14.2,25.39C179,93.31,170.35,74.67,178.43,68.06Z" transform="translate(-102.09 -43.62)"/><path class="cls-97" d="M186.88,51.65c11.73,1.1-.46,3.21-6,11.19C177.92,60.05,183,53.8,186.88,51.65Z" transform="translate(-102.09 -43.62)"/><path class="cls-98" d="M180.76,56.51c.42,8-3.32,12.22-6.88,20.2C173.64,70.88,176.38,61.31,180.76,56.51Z" transform="translate(-102.09 -43.62)"/><path class="cls-99" d="M173.58,81.37c3.21,8.76-10.08,16.32-3.25,5.14C171.4,90.88,172,81.3,173.58,81.37Z" transform="translate(-102.09 -43.62)"/><path class="cls-100" d="M195,48.23c1.75,1.73-1.37,2.69-1.06.28Z" transform="translate(-102.09 -43.62)"/><path class="cls-101" d="M172.64,81.31c-.23-.12-.25-.12,0,0Z" transform="translate(-102.09 -43.62)"/><path class="cls-102" d="M211.92,315.76c1.49-.71,6.36.25,5.36,1.93C215.38,316.53,212.38,319.44,211.92,315.76Z" transform="translate(-102.09 -43.62)"/><path class="cls-103" d="M206.12,317.09c1-.09,1.57-2.09,2.91-.64C208.51,318.72,207.23,317.52,206.12,317.09Z" transform="translate(-102.09 -43.62)"/><path class="cls-104" d="M202.55,320.44c1-1.62,2.3-1.21,3.63-.52A4.62,4.62,0,0,1,202.55,320.44Z" transform="translate(-102.09 -43.62)"/><path class="cls-105" d="M138.93,186.44c-1.35-8.75,11.18-15.43,8.36-21.87,6.72-2.57,2.48-14.27,7.5-15.53C159.43,164.08,143.86,175.52,138.93,186.44ZM154,155.07c.16.06.26.12.3-.11C154.15,154.89,154.05,154.84,154,155.07Zm-2.13,12.23c.19-.1.2-.21,0-.34C151.76,167.1,151.55,167.26,151.88,167.3ZM149.64,166c.12.06.18.13.17-.06Z" transform="translate(-102.09 -43.62)"/><path class="cls-106" d="M157.6,159.33c.29-.24.3-.23,0,0Z" transform="translate(-102.09 -43.62)"/><path class="cls-107" d="M157.62,159.35c-.25.26-.26.25,0,0Z" transform="translate(-102.09 -43.62)"/><path class="cls-108" d="M351.06,229.21a.42.42,0,0,1-.59.38Z" transform="translate(-102.09 -43.62)"/><path class="cls-109" d="M228.66,109.62c3.66,3.39,28.07-1.47,32.09,13.37C247,109,211.28,109.12,197.94,117,182.71,109.45,229.18,107.27,228.66,109.62Zm-12,1.9c.68.59.9-.07,1.2-.6C218.05,109.87,216.46,110.67,216.64,111.52Z" transform="translate(-102.09 -43.62)"/><path class="cls-110" d="M267.37,141.43c3.05,3.5,2.58-1.89,4.46-2.48,4.48,3.51,5,11.69,3.48,17.32C273.42,152.43,262.14,150.84,267.37,141.43Z" transform="translate(-102.09 -43.62)"/><path class="cls-111" d="M270.18,157.66v2.2A1.57,1.57,0,0,1,270.18,157.66Z" transform="translate(-102.09 -43.62)"/><path class="cls-112" d="M206.72,109.07c-14.25,7.23-34.24,3.3-43.29,19.91-9.31-1.52,15.94-15.69,12.1-17C178.43,113.17,200.07,108.88,206.72,109.07Z" transform="translate(-102.09 -43.62)"/><path class="cls-113" d="M197.94,117c-.72-3.31,3.52-5,3.57-1C200.17,115.51,199.36,117.56,197.94,117Z" transform="translate(-102.09 -43.62)"/><path class="cls-114" d="M201.51,116l.2.09C201.64,116.07,201.57,116,201.51,116Z" transform="translate(-102.09 -43.62)"/><path class="cls-115" d="M250,295.79c10.88-5.65-2.65,11.58-8.12,12-16.17,7.56-29.15-5.75-39.12-13.76C220.67,288.2,236.28,318.91,250,295.79Zm-38.12-.89c-.95,0-1.39,1.47-.14,1.4C212.84,296.66,213.07,295,211.88,294.9Z" transform="translate(-102.09 -43.62)"/><path class="cls-116" d="M212.44,301c7,2,11,9.23,17.4,11C221.62,314,217.17,305.8,212.44,301Z" transform="translate(-102.09 -43.62)"/><path class="cls-117" d="M212.44,301c0,2.94,4.92,1.64,4.69,5.12-2.31-.55-16.68-8.24-10.56-8.27C207.76,300.44,210.08,300.71,212.44,301Z" transform="translate(-102.09 -43.62)"/><path class="cls-118" d="M202.76,294a6.27,6.27,0,0,1,2.17,4.06C203.3,297.21,201.67,296.34,202.76,294Z" transform="translate(-102.09 -43.62)"/><path class="cls-119" d="M217.1,296.9c-1.68.08-3.18-.06-2.82-2.39A5.23,5.23,0,0,1,217.1,296.9Z" transform="translate(-102.09 -43.62)"/><path class="cls-120" d="M225.75,312.46c.75-2,1.89-.94,3-.38C227.8,312.8,226.75,312.39,225.75,312.46Z" transform="translate(-102.09 -43.62)"/><path class="cls-121" d="M252.53,56.87c-9,1.15-7.2-5.46,1.05-2C251.25,55.59,251.25,55.59,252.53,56.87Z" transform="translate(-102.09 -43.62)"/><path class="cls-122" d="M196.9,195.14c-1.71,1-3.44-.48-5.25.05C190.93,193.19,198,192.26,196.9,195.14Z" transform="translate(-102.09 -43.62)"/><path class="cls-123" d="M160.58,194.11c-.78,1.49-3.73,5.11-3.91,1.8C158.19,195.77,158.42,192.83,160.58,194.11Z" transform="translate(-102.09 -43.62)"/><path class="cls-124" d="M188.27,195.18l-.48-.4C188.07,194.78,188.4,194.7,188.27,195.18Z" transform="translate(-102.09 -43.62)"/><path class="cls-125" d="M257,199.79c-.12.25-.12.25,0,0Z" transform="translate(-102.09 -43.62)"/><path class="cls-126" d="M285.89,69.54c-.47-2.35,3.34-.18,4.31.58C288.62,71,287,72.25,285.89,69.54Z" transform="translate(-102.09 -43.62)"/><path class="cls-127" d="M273.36,178.05c-4.4.75-1.73-7.92-3-10.86C272.66,165.61,273.17,175.41,273.36,178.05Z" transform="translate(-102.09 -43.62)"/><path class="cls-128" d="M339.83,225c-3.12,1.27-3.31-3.7-.14-3.21A6.71,6.71,0,0,0,339.83,225Z" transform="translate(-102.09 -43.62)"/><path class="cls-129" d="M199.21,195.75c0-.15-.07-.3-.1-.45C199.79,195.06,200.22,195.61,199.21,195.75Z" transform="translate(-102.09 -43.62)"/><path class="cls-130" d="M255.83,347.76c.33-.28.65-1.07.9-.42A5,5,0,0,0,255.83,347.76Z" transform="translate(-102.09 -43.62)"/><path class="cls-131" d="M241.39,366.81l-.21-.12C241.25,366.72,241.33,366.84,241.39,366.81Z" transform="translate(-102.09 -43.62)"/><path class="cls-132" d="M296.88,209c.93-.24,5.46.68,5.85-.28C317.44,201,310.89,219.11,296.88,209Z" transform="translate(-102.09 -43.62)"/><path class="cls-133" d="M276.61,304c.32.07.08.2-.08.32C276.39,304.11,276.43,304,276.61,304Z" transform="translate(-102.09 -43.62)"/><path class="cls-134" d="M252.92,87.69c4.92.44,7.28,8.24,6.93,12.71C257.67,96.37,254.64,92.13,252.92,87.69Z" transform="translate(-102.09 -43.62)"/><path class="cls-135" d="M147.29,164.57c3.48,3.6-3.49,8.21-5.49,11.3A16.7,16.7,0,0,1,147.29,164.57Z" transform="translate(-102.09 -43.62)"/><path class="cls-136" d="M219.41,108.62c-3.09,1-9.72,2.47-12.1.42C210.28,108.23,219.56,104.94,219.41,108.62Z" transform="translate(-102.09 -43.62)"/><path class="cls-137" d="M288.19,168c1.25-7.4-4-3.47-1.53-10.88C288.89,164.13,293.26,159.08,288.19,168Z" transform="translate(-102.09 -43.62)"/><path class="cls-138" d="M281.76,79.64c-3.88,2.67-3.08-4.59-6.08-2.82C269.34,70.4,281,75.3,281.76,79.64Z" transform="translate(-102.09 -43.62)"/><path class="cls-139" d="M193.2,68.16c2.89-2.55,6.45-3,10-3.4C198.93,67.32,197.26,68.48,193.2,68.16Z" transform="translate(-102.09 -43.62)"/><path class="cls-140" d="M281.9,79.5c9.37,4.44,3.74,10-.14.14Z" transform="translate(-102.09 -43.62)"/><path class="cls-141" d="M237.31,111.4c-2.9,1-10.37-2-4.41-3.2C233.41,110.7,237.41,108.24,237.31,111.4Z" transform="translate(-102.09 -43.62)"/><path class="cls-142" d="M256.37,97.53c-4-1.13-3.8-4.81-4.79-7.78C253.06,92.35,255.91,94.47,256.37,97.53Z" transform="translate(-102.09 -43.62)"/><path class="cls-143" d="M277.28,83.55c2,1.26,4.79,4,4.83,6.1C279.86,89.65,277.68,85.4,277.28,83.55Z" transform="translate(-102.09 -43.62)"/><path class="cls-144" d="M238.08,64.48c-3.82.42-7.61.3-11.37.8A20.26,20.26,0,0,1,238.08,64.48Z" transform="translate(-102.09 -43.62)"/><path class="cls-145" d="M264.22,105.05c-1-2.59-.29-5.14.08-7.71A9.79,9.79,0,0,1,264.22,105.05Z" transform="translate(-102.09 -43.62)"/><path class="cls-146" d="M247.57,66.22c-3-.51-5.29-.31-7.56-1.29C242.62,63.48,244.81,64.09,247.57,66.22Z" transform="translate(-102.09 -43.62)"/><path class="cls-147" d="M270.27,71.48c-8.11-2.43,1.88-5.39,0,0Z" transform="translate(-102.09 -43.62)"/><path class="cls-148" d="M266.79,108.49c2-1.73.66-4.21,1.42-6.36C268.58,104.23,270.19,113.81,266.79,108.49Z" transform="translate(-102.09 -43.62)"/><path class="cls-149" d="M268.54,118.88c-4.69-5,1.3-8.09,0,0Z" transform="translate(-102.09 -43.62)"/><path class="cls-150" d="M257.55,102.12c-.52-2.64-2.38-6.21,1.16-2.89C258.24,101.25,260.52,105.8,257.55,102.12Z" transform="translate(-102.09 -43.62)"/><path class="cls-151" d="M271.57,68.12c1.08,1.08,3.67-.59,3.92,2C276,73.34,272.44,69,271.57,68.12Z" transform="translate(-102.09 -43.62)"/><path class="cls-152" d="M140.84,146.3c2.29-2.14,4.33-.42,6.29-.66A8.85,8.85,0,0,1,140.84,146.3Z" transform="translate(-102.09 -43.62)"/><path class="cls-153" d="M192.9,55.59c-1.17-2.07,1.16-1.93,1.85-2.74C197.93,51.69,194.92,56,192.9,55.59Z" transform="translate(-102.09 -43.62)"/><path class="cls-154" d="M272.32,118.3c-.95-2.45-1.54-4.92-.56-7.46C272.1,113.32,271.76,115.85,272.32,118.3Z" transform="translate(-102.09 -43.62)"/><path class="cls-155" d="M299.6,79.38c-1.14,1.44-3.08.24-4.33-.43C295.6,77.15,298.28,79.08,299.6,79.38Z" transform="translate(-102.09 -43.62)"/><path class="cls-156" d="M271,86.8c1.17,1.46,1.18,2.89,1.33,4.92C270.73,90.06,270.76,88.61,271,86.8Z" transform="translate(-102.09 -43.62)"/><path class="cls-157" d="M266.81,108.46c-.63.39-.51,1.15-1,2.56C265.59,107.5,266,103.39,266.81,108.46Z" transform="translate(-102.09 -43.62)"/><path class="cls-158" d="M287.91,126.19c1.38-.1,1.3,1.45.46,2.07C287.77,127.81,286.11,125.94,287.91,126.19Z" transform="translate(-102.09 -43.62)"/><path class="cls-159" d="M270.25,71.5c1.7.5,1.41,1.87,1.65,3.57C270.44,73.92,271.14,72.25,270.25,71.5Z" transform="translate(-102.09 -43.62)"/><path class="cls-160" d="M277.86,155.91v-3.54C278.31,153.35,279.47,154.26,277.86,155.91Z" transform="translate(-102.09 -43.62)"/><path class="cls-161" d="M266.52,81.14a8.35,8.35,0,0,1,0-4.14A7.57,7.57,0,0,1,266.52,81.14Z" transform="translate(-102.09 -43.62)"/><path class="cls-162" d="M181.67,71.53a2.41,2.41,0,0,1-.67.3C179.23,72,181.76,69.16,181.67,71.53Z" transform="translate(-102.09 -43.62)"/><path class="cls-163" d="M273.36,178.05c0-.69-.06-1.38-.1-2.08C274.81,176.23,275.12,178.17,273.36,178.05Z" transform="translate(-102.09 -43.62)"/><path class="cls-164" d="M252.94,87.67c-.35-.72-1.53-.61-1.7-1.71C252.82,85.67,252.93,86.67,252.94,87.67Z" transform="translate(-102.09 -43.62)"/><path class="cls-165" d="M277.52,146a1.75,1.75,0,0,1-.06,1.83A1.71,1.71,0,0,1,277.52,146Z" transform="translate(-102.09 -43.62)"/><path class="cls-166" d="M282.47,75.46c.71,0,1.5,1.16.54,1.33C282.87,76.38,282.17,75.8,282.47,75.46Z" transform="translate(-102.09 -43.62)"/><path class="cls-167" d="M281.31,72.76c-.4,1-1.36.25-.75-.46Z" transform="translate(-102.09 -43.62)"/><path class="cls-168" d="M298,176.67a1.19,1.19,0,0,1-.34-1.74C298.24,175.45,297.85,176.22,298,176.67Z" transform="translate(-102.09 -43.62)"/><path class="cls-169" d="M259.85,100.4c1.18,0,1.17.89,1.16,1.73A13,13,0,0,0,259.85,100.4Z" transform="translate(-102.09 -43.62)"/><path class="cls-170" d="M196.1,69.61c-.12.45-.27.55-.68.28C195.54,69.43,195.69,69.34,196.1,69.61Z" transform="translate(-102.09 -43.62)"/><path class="cls-171" d="M277.11,83.72c-1.38-.65-.12-1.59.17-.17Z" transform="translate(-102.09 -43.62)"/><path class="cls-172" d="M277.52,157.29c-.22-.41-.13-.57.3-.7C278.06,157,277.9,157.13,277.52,157.29Z" transform="translate(-102.09 -43.62)"/><path class="cls-173" d="M277.25,150.13c-.09,1.76-1.21,1-.09-.08Z" transform="translate(-102.09 -43.62)"/><path class="cls-174" d="M268.29,112.15c-.5-.31-.22-.57,0-1A.63.63,0,0,1,268.29,112.15Z" transform="translate(-102.09 -43.62)"/><path class="cls-175" d="M277.16,150.05l.29-.74C277.86,149.42,277.31,150.2,277.16,150.05Z" transform="translate(-102.09 -43.62)"/><path class="cls-176" d="M219.44,106.76l.2-.73C220.19,106.48,219.53,106.55,219.44,106.76Z" transform="translate(-102.09 -43.62)"/><path class="cls-177" d="M302.92,200.16c.14.17.14.28,0,.41Z" transform="translate(-102.09 -43.62)"/><path class="cls-178" d="M263.87,121.73c.1-1,.77-.58.09.08Z" transform="translate(-102.09 -43.62)"/><path class="cls-179" d="M287.35,164.67c-.2,0-.15-.12-.09-.26C287.46,164.44,287.41,164.53,287.35,164.67Z" transform="translate(-102.09 -43.62)"/><path class="cls-180" d="M269.31,114.09c.49-.1.08.78-.07.21C269.23,114.24,269.29,114.16,269.31,114.09Z" transform="translate(-102.09 -43.62)"/><path class="cls-181" d="M175.53,111.94c-.23-.12-.25-.12,0,0Z" transform="translate(-102.09 -43.62)"/><path class="cls-182" d="M268.53,118.89c.23.13.23.13,0,0Z" transform="translate(-102.09 -43.62)"/><path class="cls-183" d="M226.38,107.9l-.14-.13S226.35,108,226.38,107.9Z" transform="translate(-102.09 -43.62)"/><path class="cls-184" d="M269.7,133.32l-.23-.1C269.55,133.24,269.63,133.36,269.7,133.32Z" transform="translate(-102.09 -43.62)"/><path class="cls-185" d="M261,102.13c.23.12.26.12,0,0Z" transform="translate(-102.09 -43.62)"/><path class="cls-186" d="M282.33,75.6c-.23-.33-.19-.38.14-.14Z" transform="translate(-102.09 -43.62)"/><path class="cls-187" d="M298.57,179.56l-.11.19C298.49,179.69,298.57,179.62,298.57,179.56Z" transform="translate(-102.09 -43.62)"/><path class="cls-188" d="M243.1,328.1h1.63C244.15,328.34,243.54,329.82,243.1,328.1Z" transform="translate(-102.09 -43.62)"/><path class="cls-189" d="M227,336.17l-.44-.63C227.27,335.35,226.74,336.1,227,336.17Z" transform="translate(-102.09 -43.62)"/><path class="cls-190" d="M242.51,328.07l.33-.7C243.07,327.92,243.22,328.24,242.51,328.07Z" transform="translate(-102.09 -43.62)"/><path class="cls-191" d="M226.92,336.2c.23.1.26.11,0,0Z" transform="translate(-102.09 -43.62)"/><path class="cls-192" d="M274.87,62.8l-.22.29C274.59,62.9,274.92,62.89,274.87,62.8Z" transform="translate(-102.09 -43.62)"/><path class="cls-193" d="M170.31,86.53c.5.06,1.12-.16,1.4.47C171.36,88.08,170.28,87.25,170.31,86.53Z" transform="translate(-102.09 -43.62)"/><path class="cls-194" d="M154,155.07c0-.23.14-.18.3-.11C154.27,155.19,154.17,155.13,154,155.07Z" transform="translate(-102.09 -43.62)"/><path class="cls-195" d="M151.88,167.3h0C151.45,167.28,151.94,166.77,151.88,167.3Z" transform="translate(-102.09 -43.62)"/><path class="cls-196" d="M149.64,166c.13-.05.21-.1.16.08Z" transform="translate(-102.09 -43.62)"/><path class="cls-197" d="M153.07,165.79c-.36.23-.42.16-.2-.21Z" transform="translate(-102.09 -43.62)"/><path class="cls-198" d="M216.64,111.52c-.18-.85,1.41-1.65,1.2-.6C217.54,111.45,217.32,112.11,216.64,111.52Z" transform="translate(-102.09 -43.62)"/><path class="cls-199" d="M228.66,109.62c-.27.2-.6.65-.69.09C228.19,109.66,228.59,109.74,228.66,109.62Z" transform="translate(-102.09 -43.62)"/><path class="cls-200" d="M266.78,142l.61-.6Z" transform="translate(-102.09 -43.62)"/><path class="cls-201" d="M177.24,113.11l.74.18C177.56,113.87,177.47,113.18,177.24,113.11Z" transform="translate(-102.09 -43.62)"/><path class="cls-202" d="M176.67,114.27c.24.13.25.13,0,0Z" transform="translate(-102.09 -43.62)"/><path class="cls-203" d="M175.54,117.71c-.15,0-.28,0-.26-.23C175.37,117.54,175.45,117.79,175.54,117.71Z" transform="translate(-102.09 -43.62)"/><path class="cls-204" d="M211.88,294.9c1.19.1,1,1.76-.14,1.4C210.49,296.37,210.92,294.93,211.88,294.9Z" transform="translate(-102.09 -43.62)"/></svg>