<?xml version="1.0" encoding="UTF-8"?><svg id="Layer_2" xmlns="http://www.w3.org/2000/svg" viewBox="0 0 715.15 500"><defs><style>.cls-1{fill:#3a3a3a;}</style></defs><g id="Layer_1-2"><g id="Sikci3.tif"><g><path class="cls-1" d="M357.44,.05c75,0,150-.03,225,0,39.7,.02,61.23,21.41,61.25,60.89,.04,94.42-.16,188.84,.26,283.26,.05,10.41-2.46,13.83-13.11,13.19-15.82-.95-31.76-.79-47.6-.04-9.18,.43-11.18-2.8-11.15-11.47,.3-86.09,.22-172.18,.15-258.27-.02-18.16,2.1-16.11-15.57-16.12-132.94-.06-265.88,.11-398.81-.29-11.27-.03-14.59,2.48-14.52,14.22,.54,86.48,.13,172.97,.52,259.45,.04,9.95-2.66,12.98-12.57,12.49-16.23-.81-32.54-.51-48.8-.09-7.3,.19-10.48-1.41-10.46-9.68,.27-97.59-.06-195.19,.32-292.78C72.47,22.28,95.64,.22,128.87,.12,205.06-.1,281.25,.05,357.44,.05Z"/><path class="cls-1" d="M358.47,392.86c109.9,0,219.8,0,329.7,0,22.45,0,26.97,4.6,26.98,27.24,.01,50.48-29.29,79.87-79.79,79.88-185.28,.02-370.57,.03-555.85,0-52.38-.01-85.5-38.21-78.6-90.42,1.33-10.08,7.06-15.65,17.15-16.53,3.94-.34,7.93-.16,11.9-.16,109.5,0,219.01,0,328.51,0Z"/><path class="cls-1" d="M500.74,214.11c-.21,7.2-3.72,12.8-8.6,17.69-16.77,16.82-33.45,33.73-50.42,50.34-10.44,10.23-22.48,10.72-31.63,1.92-9.55-9.19-9.48-21.79,.25-32.75,1.84-2.07,3.99-3.86,5.8-5.95,9.47-10.95,22.23-18.87,29.38-31.94-9.92-10.2-19.84-20.41-29.77-30.6-1.1-1.13-2.25-2.23-3.35-3.37-11.54-12.04-12.53-24.84-2.69-34.43,9.88-9.63,21.56-8.82,33.42,2.83,16.38,16.08,32.51,32.43,48.74,48.67,4.88,4.88,8.48,10.42,8.87,17.58Z"/><path class="cls-1" d="M312.75,271.4c-.58,5.97-4.77,12.73-12.98,16.69-7.99,3.86-16.05,2.97-22.18-2.97-19.36-18.75-38.57-37.69-57.04-57.31-8.17-8.68-7.77-19.08,.68-27.95,18.04-18.94,36.54-37.48,55.52-55.48,9.11-8.64,20.63-7.76,28.99,.27,8.69,8.36,9.59,21.27,.92,31.16-8.6,9.82-17.79,19.28-27.66,27.81-8.71,7.53-10.41,12.95-.43,21.01,9.51,7.68,17.6,17.12,26.23,25.88,4.85,4.93,8.43,10.53,7.95,20.88Z"/></g></g></g></svg>