<?xml version="1.0" encoding="UTF-8"?><svg id="Layer_2" xmlns="http://www.w3.org/2000/svg" viewBox="0 0 499.52 500"><defs><style>.cls-1{fill:#3a3a3a;}</style></defs><g id="Layer_1-2"><g id="PMh8o7.tif"><g><path class="cls-1" d="M24.66,500c-15.57-.11-27.81-14.62-23.94-28.8,9.97-36.51,20.8-72.79,31.6-109.07,2.2-7.4,7.23-13.38,12.71-18.86,80.66-80.62,161.34-161.21,241.81-242.02,5.25-5.27,7.97-4.88,12.97,.19,32.72,33.17,65.65,66.13,98.85,98.81,5.38,5.3,4.75,8-.26,12.98-80.56,80.23-160.92,160.65-241.29,241.06-7.02,7.02-14.98,12.35-24.57,15.12-34.04,9.82-68.07,19.68-102.11,29.47-2.31,.67-4.74,.92-5.77,1.12Z"/><path class="cls-1" d="M1.84,123.52c.28-13.21,5.62-24.25,14.79-33.47,24.53-24.65,48.98-49.38,73.81-73.73,20.79-20.39,47.91-20.28,68.95-.34q18.99,17.99,.47,36.51c-14.75,14.76-29.64,29.38-44.19,44.34-8.46,8.69-7.61,18.78,1.5,24.83,8.05,5.35,14.46,1.99,20.36-3.91,18.44-18.44,37.07-36.71,55.21-55.44,5.02-5.18,8.07-5.6,13.13-.12,9.91,10.72,20.32,21,30.95,31,5.05,4.75,5.87,7.82,.41,13.22-43.74,43.31-87.22,86.88-130.63,130.52-4.24,4.27-6.92,5.28-11.7,.42-26.08-26.54-52.59-52.66-78.78-79.09-9.43-9.52-14.55-21.07-14.28-34.73Z"/><path class="cls-1" d="M498.64,373.57c0,14.54-5.06,25.76-14.21,35-24.96,25.2-49.85,50.46-75.27,75.18-20.02,19.47-47.33,19.53-67.33,.08-26.66-25.94-52.61-52.61-79.12-78.71-4.62-4.55-4.45-7.22,.06-11.7,43.91-43.61,87.67-87.37,131.29-131.28,4.5-4.53,7.26-4.71,11.7-.01,10.26,10.86,20.82,21.48,31.73,31.69,5.27,4.94,5.42,8.14,.1,13.29-18.48,17.9-36.51,36.26-54.67,54.48-5.05,5.07-9.51,10.4-6.13,18.35,4.82,11.35,16.76,13.57,26.25,4.29,18.4-17.98,36.83-35.96,54.46-54.68,6.62-7.03,10.15-6.1,16.16,.34,10.22,10.96,21.64,20.86,24.34,36.68,.46,2.73,.52,5.53,.66,7Z"/><path class="cls-1" d="M499.52,87.93c.11,14.58-5.85,29.44-17.82,41.66-16.55,16.88-33.52,33.35-50,50.3-4.16,4.28-6.56,4.13-10.68-.03-33.53-33.83-67.2-67.51-101.04-101.03-4.21-4.17-4.18-6.57,.04-10.68,16.95-16.48,33.23-33.64,50.33-49.96,25.51-24.34,62.76-24.18,88.48,.04,8.35,7.86,16.42,16.03,24.27,24.39,11.21,11.94,16.46,26.36,16.41,45.31Z"/></g></g></g></svg>