<?xml version="1.0" encoding="UTF-8"?><svg id="Layer_2" xmlns="http://www.w3.org/2000/svg" viewBox="0 0 373.75 500"><defs><style>.cls-1{fill:#f8f8f8;}.cls-2{fill:#3a3a3a;}</style></defs><g id="Layer_1-2"><g id="EavWB6.tif"><g><path class="cls-2" d="M185.86,0c138.1,1.93,219.89,135.57,176.01,247.16-11.25,28.61-25.53,55.5-41,81.88-31.35,53.46-67,104-105.39,152.57-18.48,23.38-37.61,24.65-55.18,2.78-54.53-67.87-103.74-139.15-141.3-218.22C-30.11,162.75,22.15,57.72,105.23,18.72,125.49,9.21,161.41,.22,185.86,0Z"/><path class="cls-1" d="M187.29,250.23c-33.44,.38-62.65-28.28-63.04-61.84-.38-33.44,28.27-62.65,61.83-63.04,33.44-.38,62.65,28.28,63.04,61.84,.38,33.44-28.28,62.66-61.83,63.04Z"/></g></g></g></svg>